<svg xmlns="http://www.w3.org/2000/svg" xmlns:xlink="http://www.w3.org/1999/xlink" viewBox="0 0 467.55 467.52"><defs><style>.cls-1{isolation:isolate;}.cls-2{fill:url(#Sfumatura_senza_nome_141);}.cls-3{fill:#ff7676;}.cls-4{fill:#85ff73;}.cls-5{fill:#bcbcbc;opacity:0.17;mix-blend-mode:darken;}.cls-6{fill:url(#Sfumatura_senza_nome_13);}.cls-7{fill:url(#Sfumatura_senza_nome_24);}.cls-8{fill:url(#Sfumatura_senza_nome_24-2);}</style><linearGradient id="Sfumatura_senza_nome_141" x1="63.52" y1="247.57" x2="531.05" y2="247.57" gradientUnits="userSpaceOnUse"><stop offset="0.73" stop-color="#fff"/><stop offset="1" stop-color="#fff"/></linearGradient><radialGradient id="Sfumatura_senza_nome_13" cx="297.64" cy="223.93" r="191.27" gradientUnits="userSpaceOnUse"><stop offset="0.33" stop-color="#767a83"/><stop offset="0.99" stop-color="#9da3b3"/></radialGradient><linearGradient id="Sfumatura_senza_nome_24" x1="380.93" y1="328.22" x2="381.7" y2="328.98" gradientUnits="userSpaceOnUse"><stop offset="0.73" stop-color="#fae0a3"/><stop offset="1" stop-color="#fff"/></linearGradient><linearGradient id="Sfumatura_senza_nome_24-2" x1="124.67" y1="162.11" x2="408.42" y2="445.86" xlink:href="#Sfumatura_senza_nome_24"/></defs><title>icon3final</title><g class="cls-1"><g id="Livello_2" data-name="Livello 2"><path class="cls-2" d="M297.29,13.81A233.71,233.71,0,0,0,90,139.47q-1.29,2.46-2.51,5l-.27.55A232.66,232.66,0,0,0,63.52,247.56c0,129.11,104.66,233.77,233.77,233.77a232.89,232.89,0,0,0,160.66-64l.69-.66c2.28-2.17,4.52-4.4,6.71-6.66a233,233,0,0,0,65.7-162.47C531.05,118.45,426.39,13.81,297.29,13.81Zm-81.81,452.7-.68-.26A233.9,233.9,0,0,1,87.46,144.59l.32-.64a234.54,234.54,0,0,1,127-115.08l.68-.26Zm243.6-50.31-.81.77a232.41,232.41,0,0,1-78.49,49.29l-.68.25V28.61l.67.26a233.73,233.73,0,0,1,79.3,387.33Z" transform="translate(-63.5 -13.81)"/><path class="cls-3" d="M488.58,113.16A233.4,233.4,0,0,0,379.81,28.78l-.67-.26V466.6l.68-.25A233.88,233.88,0,0,0,488.58,113.16Z" transform="translate(-63.5 -13.81)"/><path class="cls-4" d="M106,381.8a233.4,233.4,0,0,0,108.77,84.38l.67.26V28.36l-.68.25A233.88,233.88,0,0,0,106,381.8Z" transform="translate(-63.5 -13.81)"/></g><g id="Livello_3" data-name="Livello 3"><g id="Livello_4" data-name="Livello 4"><path class="cls-5" d="M465,409.73q-3,3.12-5.94,6.47c-.16.16-.3.32-.44.49l-.69.66a232.89,232.89,0,0,1-160.66,64c-129.11,0-233.77-104.66-233.77-233.77A232.66,232.66,0,0,1,87.18,145l.27-.55c.11-.16.23-.32.33-.48a40.25,40.25,0,0,0,2.57-4.27l125.09,90.16,0,0L379.1,347.81l0,0Z" transform="translate(-63.5 -13.81)"/></g><path class="cls-6" d="M502.43,242.11a131.7,131.7,0,0,1-2.14,23.66l-11.8-2.17a120.26,120.26,0,0,0,1.78-15.43L466,248.4c0,1.29,0,2.59,0,3.89a168.07,168.07,0,0,1-88,148,2.77,2.77,0,0,1-3.77-1.16l-.72-1.38a2.78,2.78,0,0,1,1.14-3.73c49.64-27.34,77.32-85,77.32-141.75,0-85.17-69.28-144.78-154.45-144.78S143.18,167.12,143.18,252.29c0,56.77,27.75,114.28,77.39,141.61a2.81,2.81,0,0,1,1.15,3.74l-.79,1.5a2.78,2.78,0,0,1-3.78,1.17,168.07,168.07,0,0,1-88-148c0-1.47,0-2.94.06-4.4l-24.24.23a118.26,118.26,0,0,0,1.83,15.76L95,266.07a131.93,131.93,0,0,1,0-47.55l11.8,2.17A116.41,116.41,0,0,0,105,236.12l25-.23a167.62,167.62,0,0,1,34.08-86.14l-12.24-10.56a83.78,83.78,0,0,0-5,7.38l-10.3-6.15a93.55,93.55,0,0,1,22.28-25.37l7.43,9.42a79.58,79.58,0,0,0-6.48,5.72l12,10.32A168.09,168.09,0,0,1,291.58,83.94l-.23-24.57a116.77,116.77,0,0,0-15.77,1.82l-2.19-11.8a132.38,132.38,0,0,1,47.55,0l-2.16,11.8a116.59,116.59,0,0,0-15.43-1.77l.23,24.55a168.08,168.08,0,0,1,120.34,57l13.18-10.39a79.81,79.81,0,0,0-6.3-6.31l8-8.94a92.73,92.73,0,0,1,11.6,12.48A94,94,0,0,1,459.47,142l-10.66,5.51a82.19,82.19,0,0,0-4.38-7.46l-12.89,10.16a167.53,167.53,0,0,1,33.8,86.22l24.93-.24a118.25,118.25,0,0,0-1.82-15.76l11.79-2.19A131.56,131.56,0,0,1,502.43,242.11Z" transform="translate(-63.5 -13.81)"/><polygon class="cls-7" points="381.83 328.85 380.69 328.77 381.33 327.82 381.83 328.85"/><path class="cls-8" d="M485.09,367l-34.2-69.81a2.28,2.28,0,0,0-4.25.41l-5.75,21.17L342.2,249.38c0-.37,0-.74,0-1.11a44.93,44.93,0,0,0-89.86,0c0,.66,0,1.32.05,2l-68,35.92a44.87,44.87,0,0,0-54.54-6.81c-16.1-14.24-64.36-56.93-65-57.49-1.21,7.49-1.95,28-.93,40.48l45.39,44A44.93,44.93,0,1,0,197.7,318v-.41l69-36.46a44.85,44.85,0,0,0,61.35-.16l93.51,65.76-17.7,14.17a2.28,2.28,0,0,0,1.27,4.06l77.76,5.3A2.28,2.28,0,0,0,485.09,367ZM152.77,347A28.93,28.93,0,1,1,181.7,318,29,29,0,0,1,152.77,347ZM297.28,277.2a28.93,28.93,0,1,1,28.93-28.93A29,29,0,0,1,297.28,277.2Zm146.91,65.38.64-.95.5,1Z" transform="translate(-63.5 -13.81)"/></g></g></svg>