<?xml version="1.0" encoding="UTF-8" standalone="no"?>
<!-- Created with Inkscape (http://www.inkscape.org/) -->

<svg
   xmlns:dc="http://purl.org/dc/elements/1.1/"
   xmlns:cc="http://creativecommons.org/ns#"
   xmlns:rdf="http://www.w3.org/1999/02/22-rdf-syntax-ns#"
   xmlns:svg="http://www.w3.org/2000/svg"
   xmlns="http://www.w3.org/2000/svg"
   xmlns:sodipodi="http://sodipodi.sourceforge.net/DTD/sodipodi-0.dtd"
   xmlns:inkscape="http://www.inkscape.org/namespaces/inkscape"
   version="1.1"
   viewBox="0 0 2286.104 4402.728"
   id="svg2"
   inkscape:version="0.91 r13725"
   sodipodi:docname="Map_of_region_of_Sardinia,_Italy,_with_provinces-it_(as of 2016).svg">
  <metadata
     id="metadata280">
    <rdf:RDF>
      <cc:Work
         rdf:about="">
        <dc:format>image/svg+xml</dc:format>
        <dc:type
           rdf:resource="http://purl.org/dc/dcmitype/StillImage" />
      </cc:Work>
    </rdf:RDF>
  </metadata>
  <sodipodi:namedview
     pagecolor="#ffffff"
     bordercolor="#666666"
     borderopacity="1"
     objecttolerance="10"
     gridtolerance="10"
     guidetolerance="10"
     inkscape:pageopacity="0"
     inkscape:pageshadow="2"
     inkscape:window-width="1366"
     inkscape:window-height="706"
     id="namedview278"
     showgrid="false"
     inkscape:zoom="0.21441252"
     inkscape:cx="1194.0222"
     inkscape:cy="3601.044"
     inkscape:window-x="-8"
     inkscape:window-y="-8"
     inkscape:window-maximized="1"
     inkscape:current-layer="svg2" />
  <defs
     id="defs367" />
  <path
     style="fill:#9BA3B3;stroke:#ffffff;stroke-width:1.99999988;stroke-miterlimit:4;stroke-dasharray:none;fill-opacity:1"
     d="M 1661.6816 2487.668 C 1661.6816 2487.668 1658.2016 2500.9032 1652.6133 2503.6973 C 1647.025 2506.4915 1635.1791 2514.8587 1628.2188 2512.0645 C 1621.2584 2509.2704 1609.3958 2503.6973 1605.2129 2503.6973 C 1601.03 2503.6973 1578.0232 2505.8055 1574.543 2502.3086 C 1571.0628 2498.8117 1564.7883 2493.2402 1561.9941 2493.2402 C 1559.2 2493.2402 1538.5039 2492.3379 1538.5039 2492.3379 C 1537.3829 2495.1823 1535.9604 2497.4072 1534.1367 2498.9297 C 1532.6308 2500.2683 1530.1546 2500.7031 1527.1094 2500.7031 L 1526.7578 2500.9199 C 1510.8628 2500.9199 1478.0689 2487.3844 1469.2012 2493.5918 C 1457.6899 2501.6062 1442.3651 2512.665 1420.748 2509.2852 C 1386.6156 2503.9311 1429.783 2553.5247 1414.7246 2563.1621 C 1386.9167 2581.4665 1436.6078 2631.8277 1429.7812 2644.209 C 1422.5031 2657.1091 1397.541 2643.8584 1386.1133 2636.1953 L 1383.7695 2633.8184 C 1384.7734 2632.0114 1385.2754 2629.9869 1385.2754 2627.6445 L 1383.4355 2627.4102 C 1378.0479 2637.6165 1326.5487 2624.7834 1313.498 2616.6016 C 1313.498 2616.6016 1262.9526 2662.2963 1221.291 2699.959 C 1213.1929 2690.8068 1205.0605 2680.8847 1205.0605 2677.7559 C 1205.0605 2671.4816 1201.9141 2664.1699 1194.1172 2660.5391 C 1186.2534 2656.8415 1171.5979 2650.5684 1170.0586 2650.5684 L 1145.4805 2650.5684 C 1145.4805 2650.5684 1124.5652 2699.1893 1121.9551 2702.8535 C 1119.345 2706.5511 1097.8945 2736.3164 1097.8945 2736.3164 C 1097.8945 2736.3164 1085.3464 2730.5618 1083.7402 2726.3789 C 1082.1674 2722.1961 1073.802 2711.7377 1069.6191 2710.6836 C 1065.4363 2709.6295 1025.6979 2709.0781 1020.4609 2709.0781 C 1015.2239 2709.0781 1007.3946 2710.6843 1008.3984 2715.8711 C 1009.4525 2721.1081 1014.1875 2728.9385 1014.1875 2732.084 C 1014.1875 2735.2295 1015.2245 2745.1504 1021.5156 2745.1504 C 1027.8067 2745.1504 1045.5746 2755.0897 1047.666 2758.7539 C 1048.8707 2760.9123 1054.9956 2771.5529 1059.8477 2779.9688 C 1032.3243 2819.4887 1013.5508 2867.9599 1010.0371 2871.6074 C 1004.0138 2877.9822 996.98752 2893.3768 987.78516 2898.0449 C 980.08864 2902.2278 962.95445 2909.4219 958.88867 2918.1055 C 952.71473 2930.8215 950.35534 2936.8439 939.81445 2947.8867 C 931.80003 2955.9848 906.92099 2944.9756 898.99023 2953.1406 C 893.06726 2959.4986 895.1589 2949.9795 862.01367 2968.334 C 838.08754 2981.5519 854.15031 2989.448 831.41211 3002.666 C 818.86344 3009.9944 808.02063 3013.6765 785.88477 3008.1719 C 771.98084 3004.8423 770.59179 2985.5156 759.7832 2985.5156 C 740.87653 2985.6829 737.99949 2992.2753 717.95508 2992.543 C 700.16943 2992.7103 695.29946 2975.3098 683.15234 2969.1191 C 671.27293 2963.0455 665.25046 2944.5246 649.85742 2936.8281 C 637.20836 2930.4366 654.60898 2888.1056 618.08398 2891.2344 C 611.32443 2891.8869 613.90119 2899.5995 582.88086 2896.9727 C 554.10257 2894.647 558.28563 2900.8387 544.39844 2893.8281 C 534.42642 2888.9927 515.11693 2867.5756 499.43945 2846.0254 L 497.26562 2850.209 L 495.08984 2862.1055 L 487.56055 2863.8945 L 474.62695 2847.3301 L 442.21875 2786.3281 L 432.34766 2776.8242 L 427.66211 2775.7031 L 423.76367 2778.1465 L 423.47852 2786.3281 L 414.94531 2808.9824 L 414.10938 2811.2402 L 418.125 2825.4961 L 416.11719 2841.877 L 422.30859 2854.0742 L 420.71875 2871.8262 L 415.49805 2874.7207 L 415.66602 2877.7988 L 424.90039 2879.1211 L 427.79492 2881.9824 L 427.54492 2894.1797 L 421.62109 2925.7188 L 412.9707 2932.0918 L 416.76953 2936.9277 L 417.77344 2947.4863 L 427.98047 2953.0078 L 432.16211 2961.1055 L 431.96094 2969.7383 L 426.18945 2981.8184 L 425.18555 3004.7246 L 425.35352 3029.3359 L 430.37305 3038.3711 L 444.66016 3051.5898 L 449.17773 3074.3105 L 440.42773 3103.5918 L 440.76172 3135.248 L 434.13672 3150.2383 L 427.51172 3175.3359 L 424.16406 3185.4414 L 379.49219 3259.5625 L 367.00977 3274.4199 L 350.11133 3286.752 L 355.46484 3291.3691 L 355.29688 3291.6035 C 349.84238 3297.493 341.72852 3305.5586 341.72852 3305.5586 L 333.71484 3333.332 L 335.4043 3338.1836 L 355.64844 3352.9082 L 375.05859 3366.7949 L 372.21289 3398.4512 L 365.58789 3408.123 L 359.0625 3428.6855 L 336.14062 3448.5625 L 328.125 3464.9102 L 330.68555 3472.9238 L 328.50977 3481.6406 L 331.1875 3493.1523 L 342.0625 3501.0996 L 339.55273 3511.8574 L 344.57227 3523.7383 L 350.09375 3523.9043 L 353.44141 3528.4395 L 348.23633 3539.6484 L 352.15234 3545.5723 L 368.88477 3543.5645 L 378.99023 3551.5449 L 385.61523 3562.3535 L 382.36914 3573.2305 L 394.56641 3585.5938 L 401.59375 3610.875 L 404.93945 3635.7891 L 398.58203 3652.8711 L 392.02344 3662.7441 L 364.66797 3685.3984 L 354.96289 3699.6875 L 349.52539 3707.7188 L 340.69141 3713.4062 L 316.26367 3740.3281 L 313.13477 3746.8691 L 314.875 3765.3418 L 320.39648 3775.4473 L 342.26367 3795.291 L 344.77344 3794.6543 L 353.30664 3792.4473 L 356.65234 3800.5957 L 355.59961 3822.832 L 360.2832 3848.9824 L 365.50391 3854.2031 L 372.16406 3852.0273 L 376.51367 3835.748 L 398.9668 3862.6016 L 404.07031 3874.0469 L 408.41992 3900.1973 L 406.67969 3947.0625 L 410.42773 3949.5234 L 423.41211 3938.0117 L 431.42578 3941.5254 L 438.10156 3936.9062 L 442.01758 3937.7773 L 455.9043 3959.5605 L 460.58984 3975.1719 L 465.44141 3987.3691 L 469.12305 3997.0742 L 469.28906 4003.916 L 452.82617 4038.4844 L 446.16602 4041.625 L 450.86914 4051.4355 L 450.49805 4051.6836 L 450.63477 4051.9707 L 476.60156 4042.5508 L 479.74805 4039.2539 L 475.23047 4034.6191 L 478.24219 4027.1074 L 474.41016 4021.1328 L 474.05859 4020.6816 L 477.2207 4015.8301 L 482.07227 4007.8145 L 487.10938 4004.7695 L 495.12305 4005.4219 L 502.48633 4005.9082 L 513.52734 4004.1016 L 515.26758 4014.0059 L 512.12305 4023.4922 L 504.22461 4030.1348 L 503.1875 4034.3184 L 511.36914 4034.9531 L 510.88477 4041.7969 L 524.26953 4043.1348 L 525.85938 4039.4219 L 520.53906 4027.9766 L 523.38281 4027.625 L 535.07812 4037.0117 L 541.25195 4052.0527 L 546.52344 4061.7578 L 556.89648 4068.9688 L 559.27148 4067.6309 L 560.32617 4059.0801 L 566.68359 4061.7578 L 573.71094 4070.9609 L 578.94922 4072.082 L 587.49805 4082.1699 L 592.15039 4081.7012 L 596.98438 4071.6289 L 606.23828 4071.4121 L 602.70703 4091.6562 L 612.5957 4108.2207 L 609.08203 4110.6641 L 593.1875 4094.2832 L 594.02344 4110.6641 L 591.58008 4123.0449 L 582.27734 4134.4238 L 580.53906 4154.5 L 592.58398 4178.9297 L 590.41016 4187.9648 L 608.64648 4212.0234 L 609.48438 4227.0156 L 616.54492 4229.6582 L 622.70117 4222.3633 L 632.12109 4218.8496 L 638.54688 4222.6816 L 638.49609 4222.7832 L 641.17383 4224.4727 L 649.33789 4237.5234 L 653.26953 4252.5137 L 655.5293 4260.6953 L 653.05273 4277.0762 L 653.88867 4297.3223 L 640.50391 4315.1074 L 637.42578 4321.7324 L 637.20703 4333.2441 L 639.04883 4342.7812 L 648.25 4346.6133 L 663.64453 4348.3535 L 673.34766 4337.8125 L 682.06445 4337.6113 L 687.30273 4342.832 L 685.79688 4365.4531 L 688.45703 4374.1699 L 676.0918 4389.8633 L 677.76562 4394.3984 L 682.61719 4396.3887 L 690.81641 4391.1523 L 701.6582 4390.1484 L 704.70312 4364.1816 L 697.00586 4355.3457 L 695.95312 4348.0176 L 702.09375 4337.6953 L 712.90234 4340.957 L 722.94141 4334.332 L 722.48828 4326.8184 L 714.57422 4313.9199 L 717.73633 4308.8496 L 722.57227 4313.7012 L 728.07617 4314.7559 L 731.58984 4311.4434 L 748.75781 4307.0586 L 758.46094 4298.4258 L 764.38477 4298.0234 L 768.2168 4293.373 L 772.61719 4293.7246 L 775.91211 4288.6719 L 785.44922 4289.0234 L 794.93555 4269.4473 L 799.33594 4269.1797 L 816.50391 4288.5879 L 824.51758 4294.1094 L 838.10352 4300.7676 L 869.57617 4308.666 L 867.11719 4323.5566 L 883.67969 4342.7988 L 888.19727 4348.1191 L 895.56055 4360.3164 L 901.91797 4360.9844 L 900.86328 4351.582 L 892.73242 4340.1035 L 895.07422 4333.9297 L 901.93555 4328.041 L 904.27734 4340.5898 L 910.9707 4346.1113 L 923.98633 4346.7793 L 930.37891 4351.1465 L 934.98047 4362.5742 L 945.32031 4371.8438 L 971.75586 4371.3418 L 979.45117 4358.1406 L 993.17188 4352.4355 L 1017.2324 4335.8887 L 1031.5547 4327.3379 L 1038.1465 4320.6621 L 1049.5742 4298.7266 L 1049.625 4298.6777 L 1036.6738 4271.0195 C 1036.6738 4271.0195 1040.8562 4255.6939 1043.6504 4250.1055 C 1046.4445 4244.5507 1043.6517 4226.4137 1039.4688 4219.4199 C 1035.2858 4212.4596 1015.7598 4194.3223 1015.7598 4194.3223 L 933.43945 4039.1211 C 933.43945 4039.1211 933.44053 4039.1029 933.42383 4039.0859 C 933.45733 4039.0689 933.5076 4039.0684 933.54102 4039.0684 C 940.23365 4037.5626 976.70703 3980.2415 976.70703 3978.5684 C 955.62526 3957.4197 920.32242 3921.5635 932.87109 3897.8047 C 937.43881 3889.0708 938.5925 3881.2233 937.37109 3874.0957 L 955.86133 3873.7109 C 955.86133 3873.7109 955.86083 3848.597 962.83789 3843.0254 C 969.81496 3837.4537 975.38672 3822.1113 975.38672 3822.1113 L 973.99805 3756.5898 C 973.99805 3756.5898 976.77544 3744.0415 975.38672 3737.0645 C 973.998 3730.0874 968.4082 3724.5156 968.4082 3724.5156 C 968.4082 3724.5156 975.38617 3664.5662 983.75195 3653.4062 C 992.11773 3642.2463 994.9128 3639.4688 999.0957 3639.4688 C 1003.2786 3639.4688 1013.032 3636.6751 1015.8262 3632.4922 C 1018.6203 3628.3093 1022.8041 3622.7383 1031.1699 3624.127 C 1039.5357 3625.5157 1047.9004 3624.127 1047.9004 3624.127 L 1086.9355 3596.2344 L 1088.3242 3571.1367 C 1088.3242 3571.1367 1092.508 3551.6119 1103.668 3541.8574 C 1114.8279 3532.1029 1128.7638 3520.9428 1141.3125 3527.9199 C 1153.8612 3534.897 1173.3867 3554.4062 1173.3867 3554.4062 L 1201.2793 3546.041 L 1206.8516 3548.834 L 1226.377 3537.6738 C 1226.377 3537.6738 1250.0853 3534.897 1259.8398 3527.9199 C 1269.5943 3520.9428 1279.3652 3509.7988 1279.3652 3509.7988 L 1308.6445 3513.9824 L 1328.1875 3534.8965 L 1353.2852 3546.041 L 1375.5723 3530.7148 L 1379.7539 3541.8574 L 1417.4004 3544.6523 L 1425.7656 3557.1992 L 1441.127 3544.6523 L 1462.041 3544.6523 C 1462.041 3544.6523 1474.59 3525.125 1487.1387 3525.125 C 1499.6874 3525.125 1508.0518 3522.3315 1509.4238 3516.7598 C 1510.8125 3511.1882 1512.2344 3498.6406 1512.2344 3498.6406 C 1512.2344 3498.6406 1545.6983 3466.5642 1547.0703 3454.0156 C 1548.459 3441.4669 1549.8809 3412.1875 1549.8809 3412.1875 C 1549.8809 3412.1875 1548.4923 3405.2264 1562.4297 3406.6152 C 1576.3503 3408.0039 1594.5046 3406.6324 1598.6875 3405.2266 C 1602.8704 3403.8212 1679.5508 3381.5195 1679.5508 3381.5195 L 1680.9395 3430.3242 L 1630.7441 3513.9824 C 1630.7441 3513.9824 1671.1507 3572.5436 1678.1445 3578.1152 C 1685.1215 3583.6868 1692.0991 3589.2584 1714.4023 3579.5039 C 1736.6887 3569.7494 1739.5007 3575.3366 1742.2949 3580.9082 C 1745.0891 3586.4798 1760.4141 3593.457 1760.4141 3593.457 L 1784.123 3614.3711 C 1784.123 3614.3711 1788.3067 3640.8581 1786.918 3645.041 C 1785.5292 3649.2238 1791.1004 3664.5658 1793.8945 3674.3203 C 1796.6887 3684.0748 1835.7225 3751.0015 1837.1113 3759.3672 C 1838.5 3767.733 1841.2942 3776.1166 1837.1113 3785.8711 C 1832.9284 3795.6256 1825.9512 3815.1504 1825.9512 3815.1504 C 1825.9512 3815.1504 1824.563 3854.2017 1817.5859 3861.1621 C 1810.6089 3868.1224 1791.1008 3882.0769 1788.3066 3886.2598 C 1785.5793 3890.3591 1780.2579 3914.6526 1776.4766 3918.0156 L 1784.5742 3917.5312 L 1798.1602 3921.0605 L 1801.2559 3917.3633 L 1813.1348 3916.6953 L 1822.1699 3911.6582 L 1831.373 3912.0098 L 1845.2598 3918.6855 L 1847.7031 3925.7129 L 1851.6855 3937.1074 L 1848.6738 3943.7832 L 1843.9883 3946.9277 L 1849.3418 3958.8242 L 1853.9766 3960.8164 L 1861.7246 3973.5645 L 1876.4473 3976.209 L 1868.752 3964.0117 L 1876.2129 3937.1738 L 1894.5176 3912.5293 L 1899.9883 3913.3984 L 1903.9551 3910.1191 L 1919.3652 3911.1562 L 1934.1211 3885.5898 L 1935.8945 3864.2578 L 1936.0957 3861.7812 L 1940.6309 3842.5742 L 1947.959 3832.9023 L 1946.252 3826.9473 L 1948.0762 3821.5918 L 1946.0684 3815.0508 L 1932.1973 3809.5449 L 1930.3574 3786.4395 L 1935.7109 3776.25 L 1933.5352 3760.5547 L 1938.0527 3744.4766 L 1936.748 3732.998 L 1939.3926 3724.6328 L 1939.2246 3714.0918 L 1947.7578 3701.1914 L 1960.6582 3660.3828 L 1978.2422 3632.8438 L 1995.1406 3619.8438 L 2010.1836 3615.6602 L 2020.9082 3616.3301 L 2019.8867 3602.2422 L 2001.8184 3592.9551 L 1982.5938 3575.2031 L 1978.0586 3564.1777 L 1976.0684 3529.375 L 1978.2422 3493.9043 L 1978.7285 3486.7109 L 2004.8965 3409.043 L 2017.7969 3380.1641 L 2033.6738 3356.1035 L 2033.8594 3336.8789 L 2040.0488 3324.498 L 2036.7031 3306.4609 L 2037.7227 3295.7188 L 2034.4609 3287.7051 L 2035.1309 3274.1191 L 2026.5137 3259.7793 L 2021.2598 3242.6973 L 2029.625 3186.4785 L 2030.4609 3181.459 L 2034.6445 3176.8242 L 2044.1152 3174.8848 L 2046.541 3171.0527 L 2045.2031 3158.3359 L 2052.3965 3130.0605 L 2052.3965 3129.625 L 2052.7148 3129.625 L 2052.7148 3129.4082 L 2052.7148 3129.3906 C 2042.5922 3126.0275 2033.5401 3121.3778 2026.1113 3116.4922 C 2007.2046 3103.793 1942.1202 3088.0478 1915.8516 3087.5625 C 1879.0422 3087.2112 1850.0951 3035.3599 1850.9316 3004.2559 C 1851.6009 2981.6348 1822.9908 3028.9349 1812.2324 3004.2559 C 1796.5382 2968.6176 1760.6991 2971.4618 1747.1465 3003.9043 C 1736.9403 3028.5332 1705.6684 2993.3647 1703.4766 2972.8184 C 1697.7878 2923.0922 1724.6419 2927.2749 1700.4648 2891.1348 C 1686.0756 2869.4005 1651.9444 2903.0473 1630.6953 2881.6309 C 1613.9136 2864.7153 1687.5328 2844.3697 1695.748 2818.5195 L 1696.2988 2813.1973 L 1695.8477 2810.1875 L 1712.5781 2790.2266 C 1712.5781 2790.2266 1699.327 2766.5166 1693.0527 2760.2422 C 1686.7783 2753.9679 1647.7434 2709.3629 1644.9492 2707.2715 C 1642.1551 2705.1801 1638.6758 2691.927 1638.6758 2687.7441 C 1638.6758 2683.5612 1633.8067 2673.8079 1647.7441 2669.625 C 1661.6815 2665.4421 1659.5908 2653.5965 1653.3164 2648.7109 C 1647.0421 2643.8253 1648.4297 2638.2536 1648.4297 2636.1621 C 1648.4297 2634.0707 1653.3151 2622.9102 1658.8867 2622.9102 C 1664.4583 2622.9102 1683.2812 2620.8184 1683.2812 2620.8184 C 1683.2812 2620.8184 1696.5332 2609.6591 1696.5332 2603.3848 C 1696.5332 2597.1105 1696.5343 2576.2114 1702.8086 2569.2344 C 1709.0829 2562.2573 1711.1738 2549.0059 1711.1738 2549.0059 C 1711.1738 2549.0059 1683.2826 2502.3099 1677.7109 2498.127 C 1672.1393 2493.9441 1661.6816 2487.668 1661.6816 2487.668 z M 450.49805 4051.6836 L 445.79883 4041.7969 L 446.16602 4041.625 L 446.01562 4041.3125 L 438.93945 4033.2969 L 434.13672 4013.7383 L 436.3125 4003.8496 L 432.12891 3994.4629 L 424.09766 3985.5957 L 405.69336 3975.9082 L 391.63867 3958.1562 L 381.04688 3956.8184 L 341.89648 3966.0195 L 340.77539 3966.3711 L 338.09766 3962.6738 L 328.22656 3949.3887 L 323.15625 3941.375 L 315.82812 3947.7324 L 303.2793 3968.6465 L 293.85938 3968.8145 L 296.92188 3998.7637 L 288.20508 4010.1738 L 308.2832 4087.1406 L 322.16992 4121.2891 L 326 4125.8242 L 335.70508 4137.0332 L 336.75977 4149.2305 L 351.98438 4187.0449 L 361.47266 4204.4453 L 359.29688 4217.3457 L 366.99414 4223.6523 L 374.9082 4224.2051 L 385.0625 4217.5449 L 389.91602 4222.9844 L 396.10547 4221.7285 L 415.84961 4205.1641 L 418.52734 4199.8438 L 416.18359 4185.3867 L 420.01562 4181.7734 L 424.55078 4169.2246 L 426.22266 4155.6387 L 429.95508 4115.3164 L 435.42578 4096.2422 L 447.52148 4074.3066 L 446.18359 4068.418 L 439.60742 4077.2012 L 433.63477 4073.6875 L 440.49414 4058.3457 L 450.49805 4051.6836 z M 235.63281 3817.1934 L 226.91602 3819.0996 L 214.58594 3828.4863 L 202.70703 3827.1484 L 196.51562 3830.3105 L 183.29688 3824.1035 L 179.28125 3824.8887 L 171.08398 3843.2109 L 151.33984 3850.4219 L 148.32812 3852.748 L 143.64453 3856.4785 L 129.37109 3856.2285 L 125.18945 3860.9785 L 114.64844 3885.0391 L 115.31641 3892.3848 L 120.55469 3897.2363 L 141.63672 3900.75 L 148.49609 3905.4023 L 152.32812 3913.9688 L 150.32031 3927.5371 L 153.38086 3935.4004 L 159.74023 3939.584 L 159.07031 3945.457 L 153.7168 3950.9941 L 153.54883 3956.6172 L 160.07422 3964.6816 L 175.13281 3970.0195 L 186.49414 3980.3086 L 199.54297 3982.0488 L 205.90234 3980.2422 L 209.91797 3983.0703 L 214.60156 3982.584 L 219.90625 3974.5703 L 232.12109 3972.5625 L 236.63672 3964.2969 L 238.14258 3927.6875 L 239.03125 3914.0859 L 244.33398 3906.957 L 238.14258 3900.1973 L 237.13867 3859.0391 L 240.48633 3831.498 L 238.47852 3820.957 L 235.63281 3817.1934 z M 1984.6562 3876.1914 L 1984.3359 3876.3125 L 1984.2559 3876.3438 L 1984.1758 3876.3672 L 1983.8164 3876.6875 L 1983.8477 3877.3848 L 1983.8574 3877.4648 L 1984.4863 3878.6797 L 1984.6055 3878.7129 L 1985.0059 3878.793 L 1985.6426 3878.9121 L 1985.8828 3878.4648 L 1985.8926 3878.4199 L 1985.9082 3877.9277 L 1985.3398 3877.2832 L 1984.9805 3877.2031 L 1985.0156 3877.0039 L 1985.0156 3876.5527 L 1984.6562 3876.1914 z M 1986.4961 3889.252 L 1986.1367 3889.4512 L 1985.1602 3890.8516 L 1984.6406 3891.6074 L 1984.5605 3891.7285 L 1984.4004 3892.0879 L 1983.4922 3899.0273 L 1983.4512 3899.8438 L 1983.5312 3902.752 L 1983.9434 3907.4844 L 1983.9844 3907.6836 L 1984.0234 3907.8438 L 1984.0449 3907.9648 L 1985.2441 3909.8711 L 1985.8203 3909.752 L 1987.3887 3908.5156 L 1987.5879 3908.1152 L 1989.2129 3902.0918 L 1989.4512 3899.6035 L 1989.9395 3893.7832 L 1988.6523 3891.3711 L 1988.293 3890.6914 L 1988.1719 3890.6523 L 1987.8516 3890.4922 L 1987.6523 3890.5039 L 1987.252 3889.7285 L 1987.2441 3889.7715 L 1987.123 3889.5723 L 1987.0449 3889.4922 L 1986.9648 3889.332 L 1986.4961 3889.252 z M 1883.1836 3987.6523 L 1883.1445 3987.7324 L 1880.7715 3992.8633 L 1879.6719 3997.0117 L 1879.752 3997.4473 L 1889.2246 4001.7559 L 1889.6445 4001.916 L 1889.7637 4001.9316 L 1890.2168 4001.9727 L 1891.7324 4001.2676 L 1891.7207 4001.2559 L 1892.2129 3999.9043 L 1892.5312 3998.4512 L 1891.1797 3991.7031 L 1891.0605 3991.2031 L 1890.8594 3990.6367 L 1890.1641 3989.3398 L 1889.8047 3988.8516 L 1887.1875 3988.2559 L 1883.5039 3987.7715 L 1883.1836 3987.6523 z M 1893.2285 3996.8711 L 1892.9473 3996.9043 L 1892.8281 3996.916 L 1892.748 3996.9316 L 1892.668 3996.9551 L 1892.3086 3997.0762 L 1892.6289 3997.4805 L 1892.9883 3997.7598 L 1893.8633 3997.6797 L 1893.8164 3997.668 L 1893.2559 3996.9121 L 1893.2285 3996.8711 z M 1898.5078 3998.4688 L 1897.9238 3998.748 L 1897.6445 3999.0273 L 1898.4922 3999.8398 L 1899.4688 4000.1602 L 1899.8281 3999.8398 L 1899.5957 3999.1875 L 1899.3555 3998.8672 L 1898.5078 3998.4688 z M 493.31641 4010.5098 L 489.35156 4021.3672 L 493.70117 4021.7188 L 499.89258 4013.7051 L 500.8457 4010.5098 L 493.31641 4010.5098 z "
     id="Sud Sardegna" />
  <path
     style="fill:#9BA3B3;stroke:#ffffff;stroke-width:1.99999988;stroke-miterlimit:4;stroke-dasharray:none;fill-opacity:1"
     inkscape:connector-curvature="0"
     id="Nuoro"
     d="m 2280.8166,1443.218 5.237,-6.6424 -1.3385,-38.5328 -6.609,-6.1572 -19.1074,-5.053 -15.3931,-9.8716 -5.9229,-3.7144 -3.1456,-3.3463 0.1673,-6.5755 6.86,-1.3051 2.0078,-6.1739 -6.0234,-29.0962 -5.856,-3.5137 -5.3541,-11.4109 -21.9184,-7.9307 -10.1059,5.0529 -5.6887,-3.1456 4.6848,-4.1828 -0.8365,-3.6977 -6.6257,-2.0078 1.1712,-13.2179 5.6887,1.7066 0.6693,-3.6977 -8.7004,-18.7226 3.5136,-7.8973 -0.502,-7.4958 -7.8638,-5.8895 -4.6848,-22.9222 3.3463,-15.6942 -1.3385,-5.2537 -4.367,2.4428 -1.7401,33.4631 -3.5136,5.9899 -9.7043,-3.5136 1.1712,-4.5343 5.9564,-4.1829 1.7401,-23.7588 -1.8404,-5.0362 -5.5215,-0.6693 8.1985,-12.9 16.8989,-8.851 -1.0541,-26.2351 6.5253,-14.3222 -1.1712,-4.5343 -14.2888,-18.2541 0.1674,-5.923 -10.1728,-8.0144 -6.3915,2.6603 -5.0195,-4.5342 -11.0428,10.5911 -1.3051,-0.3514 -3.547,-0.8366 c -19.8771,9.4701 -48.3543,14.2386 -50.3621,22.9055 -0.8365,4.0491 -38.4826,13.904 -38.4826,26.1515 0.1674,18.2374 -22.3533,-66.759 -28.2763,-54.3776 -5.1868,10.7249 -88.1754,-32.9947 -94.868,-18.9234 -5.3039,11.0261 -24.5954,29.2802 -41.3269,49.1573 -8.3658,9.9051 -18.6055,32.1581 -34.2998,36.341 -8.2151,2.1751 -38.7001,1.5058 -46.3631,1.5058 -23.19,0.2008 -36.3075,-1.5058 -54.7624,-6.1907 -18.0701,-4.3502 -18.5721,3.1456 -35.4709,7.73 -16.9491,4.5343 -9.537,26.2351 -20.0779,36.9768 -7.6965,7.9977 -34.5172,49.1573 -28.611,55.5153 17.4008,18.9067 -11.8794,28.4102 -9.035,46.0118 3.5136,23.2234 -35.2702,16.832 -38.3153,23.3573 -4.6849,9.6206 -32.292,19.9607 -43.8367,26.0008 -17.6686,9.2359 -9.0351,33.2958 -31.9573,33.6639 -18.7226,0.2008 -46.8484,-8.165 -64.4165,-3.5136 -14.0546,3.7144 -21.9519,-12.7662 -41.829,-12.5487 -14.2553,0.1841 -20.3623,0.5354 -25.4487,5.8895 -2.3089,2.4763 -4.3167,5.9899 -6.6257,10.8421 -4.8521,10.0557 -19.1576,18.5386 -19.1576,33.1118 0.3514,25.0973 44.7067,3.8984 57.6904,16.9658 7.5292,7.4623 47.8523,-12.3479 64.7512,-12.5487 17.1331,-0.184 16.7315,49.6928 23.0895,62.392 6.6257,13.2179 -48.1869,18.7059 -47.9861,34.2997 0.251,17.5347 -18.9401,28.7114 -18.9401,39.453 0.2008,9.7044 -10.8086,33.1118 -17.8191,40.5072 -8.3658,8.5498 -13.3686,15.4097 -24.06,26.6199 -7.3284,7.5292 2.8443,19.4253 -8.8343,25.4487 -8.5666,4.5343 -27.3059,21.2658 -35.1697,23.3071 -13.7199,3.6809 -26.2686,9.5872 -41.829,13.5525 -11.8794,3.2627 -27.9417,22.253 -39.1518,22.5207 -28.2764,0.1339 -29.2803,9.3195 -41.8289,15.7946 -13.8872,7.3786 -18.0701,-1.4891 -27.9417,8.7172 -7.5292,7.8471 -14.2888,21.3829 -22.253,29.7487 -8.0981,8.1148 -11.2102,21.3327 -19.1744,29.6985 -4.5677,4.8522 -8.5331,-4.8521 -18.9067,-15.2257 -8.3657,-8.3658 -6.358,-5.6887 -21.0817,-18.0032 -13.0507,-11.0093 -24.9301,-12.5486 -25.0974,-35.2366 0,-11.0429 -10.0389,-29.4811 -16.2296,-32.6266 -12.5487,-6.358 -17.7857,-9.7043 -38.8172,-9.537 -9.972,0 -16.3802,-18.3211 -22.0857,-24.1604 -3.6809,-3.7813 -17.0662,-29.665 -41.99623,-30.8697 -9.87162,-0.3848 -26.7705,16.3467 -39.31917,13.2012 -6.20741,-1.5058 -17.78566,-17.9697 -21.26582,-25.0974 -5.92298,-12.1303 -19.74325,-9.6039 -36.97676,-13.7868 -11.77902,-2.928 2.84436,30.3511 -1.67316,49.5255 -2.39261,10.0724 -13.8872,17.7689 -17.23351,31.6561 -2.47627,10.6747 -20.07788,-0.7864 -28.61098,8.0144 -10.03894,10.3568 -16.89888,10.0724 -38.4826,10.1895 -16.31327,0.1673 -24.93003,14.7238 -41.15965,14.9079 -22.15259,0.3513 -22.42029,16.7315 -34.38336,28.9288 -8.01442,8.3658 -11.52805,16.7316 -27.30592,20.7472 -20.41251,5.5214 -17.06619,-6.6257 -28.77829,5.5214 -10.84205,11.5113 -15.89498,8.3658 -35.27014,13.5526 -8.18173,2.1583 -6.55877,-3.0117 -7.8973,-10.039 l -7.31169,1.7234 c 2.19184,18.9066 -7.02726,70.9083 12.74945,85.8329 47.14955,35.6717 61.70601,11.8794 61.2208,25.7666 -1.05409,23.7588 -5.90624,65.5877 5.30391,84.5446 10.72493,18.0366 42.5149,-16.9491 58.20911,-10.0891 l 0.65253,-1.5393 c 5.68873,-11.8794 14.40588,23.5747 26.13471,29.2802 11.87941,5.8561 26.82069,6.358 41.82891,6.1907 5.52141,0 26.21836,-11.0428 35.25341,-13.4355 14.08797,-3.6474 33.81449,-0.3179 48.40441,-0.4517 10.15606,0 34.1324,-22.253 48.01959,-18.9234 12.74946,3.1455 61.60565,4.8354 68.43215,-2.4094 5.5214,-5.672 17.8693,-9.035 40.9756,-5.3039 16.079,2.493 18.7895,-1.1377 38.7001,-1.305 18.6055,-0.2175 26.9713,3.5973 38.6833,9.4533 17.083,8.5833 22.2363,10.5744 13.218,29.4978 -5.9565,12.5486 -6.174,24.6288 -5.9565,42.883 0,4.6513 13.0005,19.3751 13.0005,35.9394 0.2175,14.7237 -19.8771,21.0817 -16.3802,35.6382 1.8739,6.8432 32.4759,28.5942 36.5082,36.6087 5.923,11.8961 4.6682,28.4269 8.3658,43.3682 3.9989,15.5269 14.958,39.8211 9.7043,51.3157 -13.6864,31.4219 -44.69,22.253 -64.7511,-1.7066 -13.3518,-15.9452 -20.2452,-10.4238 -29.6985,-0.3514 -9.4199,9.7545 -11.7121,28.9623 -22.4705,34.5172 -14.5565,7.6965 -14.9413,25.0974 -17.6016,36.9768 -3.5137,15.1755 35.7888,24.2106 39.453,38.7503 1.3385,5.3206 44.0207,-11.0261 64.0819,6.1739 8.851,7.6631 -31.7565,39.955 -24.9133,54.0263 6.1739,12.4148 -14.272,39.8211 -7.8806,56.0842 12.3312,31.0203 20.2452,18.9234 33.4631,23.7755 10.3401,3.8817 71.2932,33.9818 68.2314,42.699 -13.0841,38.1647 91.1703,-10.1728 88.9617,4.5342 -1.3218,9.1689 43.1674,58.6944 41.3772,84.0092 0,2.3759 -0.4685,4.4004 -1.5394,6.174 l 2.4094,2.4093 c 11.5113,7.6631 36.4246,20.9145 43.6025,8.0144 6.9101,-12.2977 -42.7994,-62.7433 -14.9915,-80.9808 14.9915,-9.7043 -28.1593,-59.2297 5.9731,-53.9091 21.567,3.43 36.9601,-7.6965 48.4714,-15.6942 8.851,-6.2408 41.6448,7.3285 57.5231,7.3285 3.0451,0 5.5214,-0.4685 7.0273,-1.807 1.7902,-1.5226 3.2124,-3.7646 4.3669,-6.5756 l 0,0 c 0,0 20.6969,0.8868 23.4911,0.8868 2.7942,0 9.0685,5.5716 12.5487,9.0685 3.4802,3.4969 26.4861,1.3888 30.6689,1.3888 4.1829,0 16.0289,5.5716 23.006,8.3657 6.977,2.7942 18.823,-5.5716 24.3946,-8.3657 5.5716,-2.7942 9.0685,-16.0289 9.0685,-16.0289 0,0 10.4572,6.2743 16.0288,10.4572 5.5716,4.1829 33.4631,50.8807 33.4631,50.8807 0,0 -2.0914,13.2514 -8.3657,20.2285 -6.2744,6.9771 -6.2744,27.8748 -6.2744,34.1491 0,6.2744 -13.2514,17.4343 -13.2514,17.4343 0,0 -18.823,2.0915 -24.3946,2.0915 -5.5716,0 -10.4572,11.1599 -10.4572,13.2514 0,2.0914 -1.3887,7.663 4.8856,12.5486 6.2743,4.8856 8.3658,16.7316 -5.5716,20.9145 -13.9374,4.1829 -9.0685,13.9374 -9.0685,18.1203 0,4.1829 3.4801,17.4343 6.2743,19.5257 2.7942,2.0914 41.8289,46.6978 48.1033,52.9721 6.2743,6.2744 19.5257,29.983 19.5257,29.983 l -16.7316,19.9942 -0.017,0 c 8.0144,29.9328 -83.6411,52.7212 -65.0691,71.4605 21.2491,21.4164 55.3815,-12.1973 69.7707,9.537 24.1604,36.1402 -2.6771,31.9573 3.0117,81.6501 2.2085,20.5631 33.4631,55.7161 43.6693,31.1207 13.5526,-32.4593 49.3916,-35.3036 65.0858,0.3346 10.7584,24.6121 39.3694,-22.5709 38.7336,0.017 -0.8366,31.104 28.109,82.9551 64.9185,83.3065 26.2685,0.5019 91.3543,16.1962 110.261,28.9289 7.4288,4.8856 16.4638,9.5537 26.6032,12.9 l -4.5175,-114.9458 -5.6888,-31.4554 1.5059,-10.3736 12.0467,-19.4086 4.3502,-12.716 -2.4428,-32.3421 3.1455,-10.3568 9.9218,-3.8315 10.3401,-25.0974 -4.8354,-15.8615 2.6436,-8.3658 0,-25.4487 -4.5175,-9.7043 1.0039,-14.7238 -5.2872,-22.9222 2.6269,-29.6316 1.991,-12.9001 10.5576,-71.2932 7.9643,-16.5475 9.3696,-9.5202 3.8483,-12.7328 -9.7043,-19.5759 -7.3619,-3.6809 -0.3346,-4.8522 4.5175,-12.3814 -5.6887,-14.7237 5.3541,-43.5523 4.6011,-16.3802 28.2429,-4.0156 4.0156,-6.107 0.1673,-18.9903 -11.0428,-12.1973 -7.1946,-0.3514 0.1673,5.3541 4.8522,2.8444 0,3.6809 -6.358,0.9203 -6.609,-3.9654 -4.1829,-11.0429 -7.3284,-54.8795 7.5292,-31.0203 12.9335,-6.6257 0,-46.1791 4.4673,-4.1829 3.246,-9.537 -3.246,-5.1868 2.3425,-5.3541 16.8988,-18.4047 14.5565,-26.1515 4.8521,-16.8988 -5.856,-19.074 0.8366,-3.5471 2.1751,-10.5576 -10.7082,-11.6619 -51.3659,-35.3036 -7.1946,-19.8771 -17.9028,-17.083 -11.8794,-18.2374 -9.3864,-33.965 -17.3841,-26.6032 -5.237,-5.3541 -5.856,-34.8017 -1.0541,-12.716 3.1288,-32.7938 -5.1366,-9.8717 -0.6693,-20.9144 1.0541,-6.358 c 0.3514,-2.995 3.3463,-20.1281 3.3463,-20.1281 l 12.9001,-45.6604 21.567,-37.0103 8.3658,-2.1918 3.3128,-15.6942 12.1973,-17.3841 7.5292,-3.3128 4.1829,-15.2258 4.1829,-4.1829 2.4428,-2.4428 7.0273,-12.9 17.635,-18.2374 -0.2342,-7.3619 -12.7495,15.7277 -5.5046,0.4517 6.5922,-12.9 12.3312,-13.653 8.0144,-2.2253 8.7171,-11.2269 5.9732,5.739 12.1973,-13.2012 -8.8175,-3.9654 8.3657,-6.3747 6.5588,-0.4685 5.2203,3.1455 6.3747,-9.4533 17.7689,2.6436 12.1973,-17.083 4.8522,-0.435 1.3218,-18.9736 4.6346,-7.3284 2.6603,-39.4865 2.6436,-3.8315 15.4098,-21.8347 10.0891,-1.5226 1.7234,-2.8444 -3.5136,-11.8794 -11.6787,-1.5058 -2.3759,-9.0351 1.7736,-5.2369 12.1973,8.3658 4.8522,1.121 2.677,-2.1751 13.2012,-34.8017 11.0094,-29.4475 3.1455,-2.1919 -1.0373,-11.0261 6.3914,-6.1907 -0.8366,-9.035 z" />
  <path
     style="fill:#9BA3B3;stroke:#ffffff;stroke-width:1.99999988;stroke-miterlimit:4;stroke-dasharray:none;fill-opacity:1"
     inkscape:connector-curvature="0"
     id="Oristano"
     d="m 1313.5816,2615.9501 c 3.5638,2.5432 -0.1339,0.5689 0,0 l 0,0 z m 30.4012,-72.9831 c 2.1919,-14.7237 -102.0625,33.5803 -88.9617,-4.5342 3.0117,-8.7506 -57.8912,-38.8507 -68.2648,-42.7157 -13.2179,-4.8522 -21.0817,7.2615 -33.4631,-23.7756 -6.358,-16.263 14.0545,-43.6861 7.8638,-56.1009 -6.8097,-14.0043 33.8145,-46.3632 24.9301,-54.0262 -20.0779,-17.1833 -62.7434,-0.8701 -64.0819,-6.1907 -3.614,-14.5397 -42.9667,-23.5413 -39.4196,-38.7503 2.6101,-11.8794 3.0619,-29.2802 17.5849,-36.9768 10.7416,-5.5716 13.0339,-24.7961 22.4537,-34.5172 9.4868,-10.0389 16.33,-15.5436 29.732,0.3514 20.011,23.9596 51.0648,33.1452 64.7177,1.7233 5.237,-11.5113 -5.7222,-35.7721 -9.6708,-51.299 -3.7479,-14.9914 -2.4596,-31.5055 -8.3658,-43.3849 -4.0323,-8.0144 -34.6511,-29.732 -36.5417,-36.6087 -3.5137,-14.5564 16.5642,-20.9144 16.3802,-35.6549 0,-16.5475 -13.0339,-31.2713 -13.0339,-35.9394 -0.1673,-18.2542 0,-30.3176 5.9899,-42.8663 9.0183,-18.9736 3.8315,-20.9145 -13.218,-29.5145 -11.7455,-5.8226 -20.1113,-9.7043 -38.7001,-9.47 -19.8938,0.2007 -22.5876,3.8148 -38.6499,1.3385 -23.123,-3.7479 -35.4709,-0.3848 -40.9923,5.2872 -6.86,7.2615 -55.71613,5.5214 -68.43212,2.4093 -13.8872,-3.3296 -37.91373,18.9234 -48.0196,18.9234 -14.58992,0.1506 -34.2997,-3.2292 -48.45461,0.4685 -8.98485,2.3759 -29.68179,13.402 -35.20321,13.402 -15.05841,0.184 -29.9495,-0.3347 -41.82891,-6.174 -11.74556,-5.7054 -20.41251,-41.1596 -26.15144,-29.2802 l -0.61907,1.5058 c -15.6942,-6.8265 -47.53437,28.1592 -58.20911,10.1059 -11.21015,-18.9736 -6.358,-60.8025 -5.3541,-84.5613 0.50194,-13.8872 -14.05452,9.8883 -61.23753,-25.7667 -19.74325,-14.9245 -10.54089,-66.9262 -12.71599,-85.8329 l 7.69652,-1.7568 c -0.66926,-3.7646 -2.1751,-7.9475 -6.19068,-11.9129 -4.56772,-4.8187 -36.5752,-19.2747 -40.90868,-20.4627 -17.38409,-4.3836 -3.53036,-12.5486 -8.61675,-31.9405 -3.11207,-12.6658 0.66926,-18.8398 -18.70589,-35.906 -6.55877,-5.8226 -12.74945,-26.2518 -20.44597,-36.6086 -14.55646,-19.76 -41.82892,-56.0842 -63.57995,-55.9002 -17.23351,0.1506 -32.22499,15.2257 -42.33086,25.5826 -10.37357,10.909 -6.19068,17.2168 -27.27245,17.5848 -16.3802,0 -43.06705,7.5125 -45.50986,-2.3758 -1.05409,-3.9989 -2.84436,-8.1818 -5.3541,-12.1973 l -4.51752,7.5292 -1.33853,22.0522 -7.02725,7.7132 -1.62297,13.8705 -5.68873,12.9 1.05409,18.0701 -7.98096,6.542 -3.68094,8.1818 3.51363,6.6257 2.00779,3.6977 2.34242,10.5576 -2.34242,15.209 6.52531,1.0206 3.84826,-4.5343 10.20625,6.174 12.04673,-1.1378 3.01168,3.5137 17.56814,0.6692 12.83311,5.0195 5.01947,6.3747 2.00779,12.7829 7.32843,3.5137 18.47164,-3.5137 7.32843,6.3748 5.3541,12.5486 2.1751,20.446 6.69263,7.6965 5.52142,-2.3758 8.75061,0.4015 0.50194,0.251 2.00779,2.3926 -1.84047,1.5058 -0.66926,0.6693 -10.37358,9.2024 -1.50584,5.0696 5.68874,0.6693 6.02336,12.1973 -4.68484,30.418 -7.86383,8.0144 -13.55257,44.6733 -7.14438,8.8677 7.31169,8.0144 -3.84826,22.6546 0.66927,32.1246 -5.52142,19.0907 -3.51363,14.9915 4.53426,13.3852 -3.34632,13.5861 5.18679,20.7136 12.90003,31.0204 13.38526,18.6724 3.34631,9.035 2.34242,6.3748 1.50584,10.1058 0.50195,3.8315 4.01557,-1.74 2.84437,-1.1378 1.17121,2.8444 -1.33853,1.3385 -6.35799,6.6592 -2.29223,9.035 5.3541,20.4125 -2.00778,7.8973 -32.62656,39.1519 -19.07398,16.33 -6.19068,2.1751 -1.33852,0.4016 -11.37747,-5.8561 -4.01557,0.6693 -21.08178,14.8911 -7.69652,-0.1674 -4.53425,-3.0451 -3.83153,-10.1728 -7.86383,-4.1829 -6.69263,15.3931 -6.52531,-3.5137 -5.50468,1.4557 -6.358,6.3747 -1.80701,3.3296 -1.52257,2.4428 0.41829,7.0273 2.50973,3.7144 2.45954,2.4428 5.70547,1.74 6.37472,-0.2007 8.36579,-3.9821 5.92297,-2.1919 4.43386,1.1545 6.37473,10.3736 2.19184,9.8716 1.32179,5.2202 1.13775,9.9051 -0.35137,7.3285 -1.84047,4.6848 -3.01168,7.8638 -3.83153,7.0273 -17.08293,27.2892 -6.02336,12.5486 0,5.0697 9.53699,14.088 0.66926,8.1315 -0.35136,16.3133 -1.74008,63.7807 -2.84437,9.9051 1.80701,9.4032 8.11481,8.0144 11.54478,1.0373 18.07009,17.083 12.3479,17.3841 4.18289,8.5665 -0.92024,11.5113 -7.69652,9.2526 0.25097,8.5498 8.36579,1.5393 6.12375,-10.3568 0.2677,-8.8343 0.16732,-8.8175 4.01558,-14.3557 10.30664,-13.8705 19.35842,-14.3055 -0.16732,-5.7222 -5.3039,-0.3513 -17.83585,18.9067 -2.84437,-2.8444 3.51363,-8.1817 -1.84047,-5.7055 -5.18678,2.4763 -2.50974,7.0272 -2.84437,0.1841 2.84437,-13.2012 9.53699,-2.3759 11.67864,-12.5487 22.67127,-2.2086 1.17121,2.3926 -1.84048,2.4763 -15.39304,6.1405 3.51363,2.6603 24.42809,-5.0529 4.01557,-11.2102 6.358,-5.9062 5.23698,-0.6693 1.95759,4.5343 -7.06072,7.479 -2.44281,7.914 2.84437,1.7401 35.47091,-2.4595 11.00937,7.8805 14.75725,17.2168 6.35799,17.5849 10.54089,22.7215 5.3541,20.2452 -3.84826,24.4448 0.35136,10.5409 0.85331,41.8289 -12.09692,44.9744 -14.10471,27.4732 -25.74988,26.9044 -3.27939,7.3284 1.68989,3.7479 5.90624,-1.3385 26.43588,-33.1118 5.92297,-3.8315 2.1751,6.1405 -8.36578,16.2965 -30.98686,42.9332 -7.72998,14.5397 c 15.62728,21.5838 35.01917,42.9667 44.90752,47.8188 13.8872,6.9771 9.70431,0.753 38.4826,3.1456 31.10398,2.6436 28.44366,-5.053 35.28687,-5.7222 36.42462,-3.1455 19.02379,39.1853 31.72305,45.5433 15.39304,7.7467 21.4164,26.3188 33.29581,32.3589 12.19731,6.1739 17.0662,23.5747 34.80166,23.3572 20.07788,-0.2008 22.92224,-6.8265 41.82891,-7.044 10.90898,0 12.21404,19.3919 26.1347,22.7048 22.11913,5.5214 33.02811,1.7735 45.57679,-5.5215 22.65454,-13.2012 6.6257,-21.0985 30.60203,-34.3164 33.11177,-18.3713 30.98686,-8.8175 36.97676,-15.1923 7.83037,-8.1817 32.77713,2.8444 40.79155,-5.3206 10.54089,-11.0261 12.9335,-17.0327 19.15765,-29.7153 4.04903,-8.7004 21.11523,-15.8782 28.81175,-20.0611 9.20236,-4.6514 16.22958,-20.0779 22.25298,-26.4359 3.4969,-3.614 22.1861,-51.7674 49.5589,-91.2205 -4.8354,-8.4327 -10.9592,-19.1409 -12.1973,-21.2658 -2.0915,-3.6642 -19.8771,-13.586 -26.1514,-13.586 -6.2744,0 -7.3285,-9.9386 -7.3285,-13.0674 0,-3.1288 -4.6848,-10.9759 -5.7724,-16.2129 -1.0541,-5.2369 6.7931,-6.793 12.0468,-6.793 5.2537,0 44.9744,0.5187 49.1573,1.5728 4.1829,1.0541 12.5487,11.5113 14.1214,15.6942 1.5895,4.1829 14.1382,9.9386 14.1382,9.9386 0,0 21.4164,-29.799 24.06,-33.4632 2.6436,-3.6642 23.5246,-52.2861 23.5246,-52.2861 0,0 23.0059,0 24.5787,0 1.5727,0 16.2128,6.2743 24.0599,9.9385 7.8471,3.6977 10.9425,10.9759 10.9425,17.2503 0,3.1455 8.1315,13.1008 16.2798,22.2697 42.1803,-38.332 92.1909,-83.6411 92.2746,-84.0092 14.6066,9.4366 64.6006,21.0148 69.9379,10.8086 l 1.8405,0.2008 c 1.9743,-25.6662 -42.4814,-75.1917 -41.1597,-84.4108 z" />
  
  <g
     transform="matrix(40,0,0,40,-6010.64,-11961.024)"
     id="Olbia-Tempio"
     style="stroke:#ffffff;stroke-width:0.05;stroke-linejoin:round;stroke-miterlimit:4;stroke-opacity:1;stroke-dasharray:none">
    <path
       id="Sassari"
       style="fill:#9BA3B3;fill-opacity:1;stroke-width:0.05;stroke-miterlimit:4;stroke-dasharray:none"
       d="m 191.9606,299.0566 -0.001,-0.002 -0.003,-0.002 -0.004,-0.002 -0.004,5e-4 -0.004,0.007 -2e-4,0.003 -3e-4,0.01 0.005,0.005 0.009,0.003 0.006,4e-4 0.007,-8e-4 0.002,-4e-4 6e-4,-0.002 1e-4,-0.003 -0.004,-0.009 -0.004,-0.005 -0.004,2e-4 -0.001,-0.004 z m 0.2392,0.2348 0.1022,-0.0159 0.0206,-0.004 5e-4,-10e-4 -0.0131,-0.1194 -0.0244,-0.029 -0.0915,-0.0422 -0.0137,-0.004 -0.1153,0.0355 -0.005,0.002 -0.0597,0.0431 -0.0225,0.0631 -2e-4,0.004 0.002,0.0102 0.002,0.006 0.002,0.003 0.0143,0.0126 0.0198,0.01 0.1491,0.0261 0.0134,0.002 0.0197,-7e-4 z m -0.2318,-0.0256 0.003,-6e-4 0.002,-0.003 0.005,-0.009 0.002,-0.005 -4e-4,-0.002 -0.006,-0.008 -0.003,-0.003 -0.0245,-0.0166 -0.002,-0.003 -0.006,-0.006 -0.003,-0.001 -0.0222,0.007 -0.006,0.003 -0.0104,0.0202 0,0.003 0.001,0.004 0.005,0.01 0.002,10e-4 0.006,0.002 0.0502,0.009 0.002,2e-4 0.004,-2e-4 z m -0.8924,0.0629 -0.0385,-0.0398 -0.0189,-0.0251 0.002,-0.0137 -0.006,-0.0105 -0.0113,-0.007 -0.1012,0.0206 -0.0117,0.0109 -0.1003,0.095 -0.0263,0.0296 -0.003,0.004 -0.002,0.007 -0.0207,0.1854 0.004,0.004 0.0253,0.0178 0.009,0.002 0.0467,0.005 0.0172,-0.009 0.0467,-0.0128 0.041,-0.0103 0.0649,-0.01 0.2357,0.0988 0.007,0.006 0.007,0.0162 -0.005,0.0145 -0.008,0.0937 0.2173,0.1583 0.0182,-5e-4 0.0124,-0.002 0.0841,-0.0179 0.0266,-0.0162 0.0228,-0.0166 0.008,-0.0145 1e-4,-0.0318 -10e-4,-0.0114 -0.0194,-0.067 -0.006,-0.0136 -0.182,-0.2768 -0.006,-0.005 -0.007,-0.003 -0.1059,0.0105 -0.2156,-0.1663 z m 0.7528,0.8781 0.005,-10e-4 0.0345,-0.0185 0.422,-0.2769 0.1451,-0.1449 0.0341,-0.0423 0.006,-0.0469 -8e-4,-0.005 -0.1373,-0.3637 -0.006,-0.0124 -0.018,-0.0111 -0.009,-0.003 -0.0123,-10e-4 -0.1903,0.2217 -0.1727,0.0526 -0.2453,0.2139 -0.01,0.0124 -0.007,0.0266 -0.006,0.0257 -0.0117,0.076 0.0217,0.0482 0.1317,0.2437 0.005,0.005 0.0166,0.002 0.006,-8e-4 z m 1.1801,-0.603 0.0174,-0.005 8e-4,-0.004 -7e-4,-0.0137 -0.002,-0.0156 -0.002,-0.005 -0.006,-0.003 -0.002,-10e-4 -0.0127,4e-4 -0.004,0.002 -0.003,0.002 -0.0102,0.0186 0.004,0.0111 0.0144,0.0146 0.007,-0.001 z m 0.0226,0.3721 0.005,-0.003 0.004,-0.005 0.0219,-0.0526 10e-4,-0.006 0.001,-0.01 5e-4,-0.007 -0.0481,-0.1324 -0.023,-0.0345 -0.003,-0.003 -0.0173,-0.0131 -0.013,-0.002 -0.0123,0.0401 -0.0843,0.1173 -0.003,0.0126 4e-4,0.0145 0.0144,0.0179 0.036,0.0413 0.004,0.002 0.005,0.002 0.0789,0.0211 0.009,0.001 0.0231,-0.002 z m 0.1753,-0.0461 0.005,-0.004 0.008,-0.021 -0.0136,-0.0349 -0.001,-0.003 -0.0216,-0.04 -0.003,-0.006 -0.005,-0.008 -0.009,-0.0114 -0.004,-0.002 -0.0457,0.002 -0.01,0.008 -0.005,0.0244 -4e-4,0.003 4e-4,0.003 0.009,0.0378 0.004,0.01 0.0116,0.0257 0.006,0.005 0.009,0.005 0.0531,0.0132 0.0126,-0.007 z m -2.4949,-0.0582 0.004,-0.002 0.003,-0.006 -2e-4,-0.004 -0.002,-0.003 -0.002,-0.002 -0.004,0.002 -0.005,0.003 -0.003,0.003 -0.004,0.003 0.003,0.006 0.002,10e-4 0.005,3e-4 0.003,-0.001 z m 0.0764,-0.008 -0.002,-10e-4 -0.0185,0.005 -0.003,0.002 0,0.005 7e-4,0.0157 4e-4,0.002 0.004,0.003 0.003,7e-4 0.008,0.002 0.004,-8e-4 0.003,-0.001 0.008,-0.0112 0.007,-0.0124 0.002,-0.01 -0.002,0 -0.0124,0.006 -2e-4,-0.005 z m 0.0308,0.0114 5e-4,-0.004 1e-4,-0.007 -0.004,-5e-4 -0.0103,0.009 -0.008,0.0187 -5e-4,0.003 7e-4,0.005 0.002,10e-4 0.005,0.004 0.003,5e-4 0.006,10e-5 0.007,-7e-4 0.004,-8e-4 0.007,-0.007 0.001,-0.003 -0.007,-0.0166 -0.003,-3e-4 -0.002,10e-4 5e-4,-0.002 z m 0.0803,0.0105 0.004,-0.005 0.003,-0.009 -0.001,-0.004 -0.008,0.002 -0.007,0.002 -0.007,0.007 0,0.004 0.003,0.007 0.002,10e-4 0.0115,-0.005 z m -0.1434,0.0161 0.002,-5e-4 0.003,-0.006 0.002,-0.005 -5e-4,-0.007 -7e-4,-0.005 -0.002,-0.002 -0.004,-3e-4 -0.0142,0.005 -0.002,0.0173 10e-4,0.002 0.001,10e-4 0.0136,10e-5 z m 0.7161,0.7942 0.0439,-0.0124 0.005,-0.006 0.0365,-0.0912 0.0169,-0.3362 -0.0772,-0.0961 -0.0725,-0.0229 -0.1908,-0.004 -0.0888,0.0628 -0.1977,0.1323 -0.1207,0.051 -0.0302,0.0132 -0.005,0.004 -0.003,0.003 -5e-4,0.004 0.002,0.009 0.0422,0.0736 0.4325,0.2493 0.006,9e-4 0.2009,-0.0347 z m 0.2401,-0.4805 0.007,-0.003 0.001,-0.004 0.003,-0.0111 -0.003,-0.01 -0.006,-0.002 -0.003,-7e-4 -0.003,-2e-4 -0.001,-0.001 -0.009,0.002 -0.002,0.002 -0.001,0.0154 2e-4,0.004 0.004,0.004 0.003,0.002 0.007,0.004 0.004,-7e-4 z m 1.2535,0.011 0.003,-5e-4 0.004,-0.003 0.002,-0.002 -1e-4,-0.004 -0.001,-0.004 -0.002,-10e-4 -0.004,-0.002 -0.005,0.003 -0.006,0.004 -7e-4,0.005 0.001,0.006 0.003,9e-4 0.005,-9e-4 z m 0.0469,0.0178 0.004,-0.004 0.001,-0.004 0,-0.005 -0.0124,-0.0187 -0.002,10e-5 -0.005,8e-4 -0.007,0.002 -0.014,0.006 -0.002,10e-4 -4e-4,0.003 0.001,0.003 0.0248,0.0162 0.006,4e-4 0.006,-0.002 z m -1.1615,0.0364 0.006,-0.002 0.008,-0.008 0.008,-0.0136 -0.002,-0.0119 -0.007,-0.0241 -0.009,-0.004 -0.0118,0.003 -0.008,0.003 -0.008,0.005 -0.0129,0.0357 2e-4,0.004 0.003,0.005 0.003,0.002 0.0122,0.007 0.008,3e-4 0.0103,-7e-4 z m -0.9898,-0.003 0.006,-0.007 0.002,-0.008 0.003,-0.002 10e-4,-0.004 -0.002,-0.0109 -0.004,-0.006 -0.003,-0.002 -0.006,-9e-4 -0.004,0.004 -0.0155,0.0271 3e-4,0.007 0.003,0.005 0.007,0.002 0.006,3e-4 0.006,-0.004 z m 2.1543,0.2528 0.0111,-0.005 0.0182,-0.009 0.0278,-0.0406 0.0116,-0.1106 2e-4,-0.0357 -9e-4,-0.007 -0.024,-0.0692 -0.004,-0.004 -0.0256,0.002 -0.005,0.003 -0.003,0.002 -0.0126,0.0133 -0.0321,0.0982 -0.001,0.004 0.008,0.0934 0.0216,0.0673 0.01,-0.002 z m -1.2026,-0.2256 0.0114,-0.002 0.005,-0.006 -4e-4,-0.003 -0.003,-0.003 -0.008,-0.008 -0.008,-0.003 -0.008,10e-4 -0.009,0.003 -0.006,0.005 -0.003,0.004 -4e-4,0.004 0.003,0.006 0.005,0.002 0.0148,8e-4 0.008,-4e-4 z m -0.0174,0.0926 0.008,-0.003 0.007,-0.0101 -9e-4,-0.007 -0.007,-0.003 -0.004,0.001 -0.005,0.002 -0.006,0.013 2e-4,0.002 0.001,0.004 0.004,0.003 0.002,-0.002 z m -0.0309,-0.0154 -0.005,-0.003 -0.004,-3e-4 -0.004,0.002 -0.006,0.005 -10e-4,0.005 9e-4,0.008 10e-4,0.004 0.0111,10e-4 0.0102,-0.006 0.004,-0.002 0.007,-0.005 3e-4,-0.006 -0.003,-0.004 -0.005,0.002 -0.008,-7e-4 z m 1.3263,0.3143 -0.004,0.002 -9e-4,0.003 0.001,0.003 0.006,0.0153 0.003,9e-4 0.004,1e-4 0.002,-0.003 0.005,-0.01 -4e-4,-0.005 -0.002,-0.003 -0.004,-0.001 -0.004,-2e-4 -0.004,6e-4 -0.002,-0.003 z m 0.9508,0.7811 -0.0147,-0.0506 -0.084,-0.1502 -0.2148,-0.1939 -0.005,-0.004 -0.0189,-0.0103 -0.074,-0.002 -0.002,-0.009 -0.0333,-0.0181 -0.0145,-0.006 -0.016,0.004 -0.0824,0.0375 -0.0116,0.006 -0.0566,0.3256 -0.004,0.0761 0.003,0.015 0.0206,0.0469 0.007,0.015 0.0325,0.0184 0.0149,0.006 0.0253,0.003 0.0136,-0.002 -0.0252,0.0836 -0.0607,0.1759 -0.005,0.0132 -0.007,0.007 -0.0158,0.0141 -0.0182,0.009 -0.0199,0.006 -0.0264,-0.0126 -0.1023,-0.0592 -0.005,-0.005 -0.0221,-0.0323 -0.006,-0.009 -0.0682,-0.1137 -0.0981,0.4262 -0.0431,0.1203 -0.0441,0.0399 -0.309,0.2443 -0.2801,0.0792 -0.0104,-0.004 -0.1148,0.011 -0.017,0.0234 -0.0752,0.1725 -0.0503,0.1303 0.0699,0.4123 0.183,0.352 0.008,0.005 0.0168,0.005 0.1753,0.0204 0.0495,0.002 0.4263,-0.0271 0.0785,-0.0295 0.0587,-0.0259 0.1994,-0.134 0.1591,-0.1018 0.0179,-0.007 0.0278,0.002 0.0108,0.002 0.01,0.003 0.0161,0.0108 0.0139,0.0357 0.003,0.0198 -2e-4,0.007 0.002,0.0158 0.005,0.0153 0.0343,0.0249 0.0194,0.0116 0.5526,-0.005 0.0295,-0.0231 0.0451,-0.1089 0.0208,-0.2871 -3e-4,-0.008 -0.0243,-0.0605 -0.0241,-0.0277 -0.007,-0.004 -0.0105,-0.001 -0.009,0.002 -0.006,0.001 -0.0311,10e-4 -0.0258,2e-4 -0.0108,-10e-4 3e-4,-0.0111 0.0139,-0.1432 0.005,-0.0177 0.0251,-0.0441 0.006,-0.005 0.0284,-0.0137 0.006,0.002 0.0836,0.0333 0.0268,0.0114 0.009,0.006 -0.001,0.0102 -0.007,0.009 -0.0106,0.005 -0.0107,4e-4 -0.0107,-5e-4 -0.004,0.005 -0.002,0.006 0.004,0.004 0.0234,0.002 0.0137,0 0.034,-3e-4 0.06,-0.0313 0.0148,-0.0157 0.1018,-0.1585 -9e-4,-0.009 -0.001,-0.009 -0.0338,-0.0374 -0.006,-0.004 -0.007,0.005 -0.004,0.009 -0.002,0.009 -0.0253,-0.0104 -0.0497,-0.0203 -0.003,-0.005 -4e-4,-0.0147 0,-0.006 2e-4,-0.0448 1e-4,-0.0194 0.002,-0.0117 -0.002,-0.004 -0.0324,-0.0159 -0.031,0.007 -0.1181,0.0738 -0.0379,0.0577 -0.1251,0.0246 0.1103,-0.3161 -0.0237,-0.3057 -0.0122,-0.0727 -0.006,-0.006 -0.006,-0.005 -0.006,-0.002 -0.0797,-0.0269 -0.008,-0.002 -0.0141,0.006 -0.0573,0.0349 -0.0114,0.0106 -0.003,0.0278 7e-4,0.005 -0.0553,-0.1338 -0.0539,-0.2538 0.1506,-0.1123 z m -6.3897,0.1355 0.0177,-0.0133 -7e-4,-0.008 -0.009,-0.0241 -0.0285,-5e-4 -0.002,-5e-4 -0.007,-5e-4 -0.0103,2e-4 -0.0113,0.002 -10e-4,0.01 10e-4,0.003 0.0138,0.0292 0.0244,0.005 0.0128,-0.002 z m -0.0847,0.0148 0.004,-0.004 0.005,-0.0101 0.002,-0.007 0.001,-0.004 7e-4,-0.003 -0.007,-0.01 -0.01,0.006 -0.0177,0.0199 -0.003,0.0166 0.0123,0.004 0.0117,-0.01 z m -0.0193,0.1342 0.0227,-0.045 -4e-4,-0.005 -1e-4,-0.003 -3e-4,-0.004 -0.005,-0.004 -0.004,-0.003 -6e-4,-0.004 -0.003,-0.007 -0.006,-0.005 -0.003,-0.003 -0.0309,-0.0119 -0.005,0.004 -0.02,0.023 -0.007,0.0161 -0.0142,0.0452 0.007,0.0184 0.0381,7e-4 0.0306,-0.0118 z m 5.4109,0.0121 0.039,-0.0157 0.005,-0.003 -2e-4,-0.0234 -0.004,-0.008 -0.003,-0.0109 -0.006,-0.006 -0.013,-0.003 -0.0589,0.0151 -0.002,0.007 0.002,0.0235 0.002,0.0109 0.007,0.0116 0.004,0.007 0.01,10e-4 0.0177,-0.006 z m -1.9621,0.0558 -0.003,-0.002 -0.006,-0.0109 -0.001,-0.004 -0.0145,-0.0687 -0.002,-0.003 -0.0237,-0.011 -0.0117,0.003 -0.0739,0.049 -0.0287,0.0431 -0.098,0.1531 -0.002,0.007 -0.002,0.01 -0.002,0.0137 -0.006,0.5264 0.0922,0.1381 0.003,0.003 0.1019,0.0775 0.0666,0.0501 0.1677,0.0316 0.0676,-0.0169 0.1619,-0.1109 0.1886,-0.2037 0.002,-0.003 0.009,-0.0222 0.002,-0.004 0.004,-0.0131 0.0615,-0.2038 0.007,-0.0252 5e-4,-0.006 -0.0152,-0.0636 -0.003,-0.004 -0.0639,-0.0243 -0.0232,0.0173 -0.0112,0.006 -0.009,0.003 -0.006,-10e-4 -0.0107,-0.007 -0.007,-0.007 -0.003,-0.008 -8e-4,-0.007 0,-0.008 0.002,-0.008 0.01,-0.0397 -0.0539,-0.0929 -0.0124,-0.0443 -0.0115,-0.0692 -0.002,-0.007 -0.004,-0.008 -0.0105,-0.0166 -0.005,-0.007 -0.0638,-0.0396 -0.009,-0.004 -0.0112,-0.005 -0.0145,0.003 -0.0104,0.006 -0.006,0.006 -0.004,0.004 3e-4,0.0306 -0.0273,0.007 -0.0652,0.0147 -0.2097,-0.0243 z m -0.5321,0.1009 0.002,-0.005 0.002,-0.006 0.001,-0.025 -0.002,-0.0267 -0.0303,-0.0869 -0.0103,-0.002 -0.0157,-0.003 -0.0712,0.0652 2e-4,0.0468 0.0107,0.0364 0.0156,0.0493 0.0979,-0.0424 z m -4.7251,-0.01 0.006,-0.0532 -0.002,-0.008 -0.0111,-0.0307 -0.0332,-0.0399 -0.008,-10e-5 -0.009,0.008 -0.021,0.0481 -0.001,0.004 -0.008,0.0378 0.001,0.004 0.0649,0.0474 0.0116,0.007 0.0101,-0.0251 z m 7.1549,0.008 0.009,-0.003 0.005,-10e-4 0.0111,-0.01 0.007,-0.0113 -0.002,-0.005 -0.004,-0.009 -0.002,-0.004 -0.006,-10e-4 0.003,-0.005 -0.001,-0.005 -0.004,2e-4 -0.007,0.002 -0.008,0.004 -0.007,0.0257 -9e-4,0.004 0,0.004 10e-4,0.01 0.002,0.005 0.004,0 z m -1.3637,0.1476 0.002,-0.003 1e-4,-0.005 0.005,-0.005 0.006,-0.004 0.002,-0.004 3e-4,-0.004 -10e-4,-0.004 -0.0168,-0.007 -0.004,0.003 -5e-4,0.005 -3e-4,0.0107 0.002,0.0162 0.002,0.005 0.002,5e-4 0.003,-0.004 z m 3.854,0.0296 0.005,-0.0125 -0.0755,0.0972 -0.1865,-0.034 -0.1376,0.0649 0.0255,0.2074 0.008,0.1371 -0.0624,0.3001 -0.1091,0.1981 -0.0166,-0.0139 -0.007,-0.005 -0.009,-0.004 -0.0459,-0.0172 -0.0207,-0.008 -0.0126,-0.004 -0.006,-0.002 -0.0459,-0.009 -0.0142,0.008 -0.0413,0.0346 -0.005,0.0138 -0.005,0.0294 0.0665,0.0333 0.037,0.03 0.005,0.006 6e-4,0.1746 -0.0389,0.0659 -0.1037,0.0429 0.0183,0.1327 0.1115,0.3021 0.0976,-0.0106 0.002,8e-4 0.0306,0.0261 0.003,0.002 0.0376,0.2176 -1e-4,0.0123 -0.003,0.009 -0.0458,0.0245 -0.0202,0.006 -0.007,9e-4 -0.0113,0 -0.0732,-0.002 -0.0101,-0.002 -0.0906,-0.0289 -0.014,-0.0101 -0.004,-0.003 -0.003,-0.007 -0.004,-0.007 -0.004,-0.005 -0.1019,-0.0908 -0.004,-0.002 -0.0384,-0.004 -0.005,0.0101 0.002,0.0511 -0.0304,0.122 -0.0132,0.0516 -0.003,0.0119 -0.008,0 -0.009,0.003 -0.009,0.006 -0.004,0.009 -0.0149,0.06 -0.001,0.009 0.001,0.008 0.012,0.0825 0.0333,0.0665 0.009,0.0131 0.0108,0.008 0.0317,0.0317 0,0.009 -0.003,0.006 -0.1172,0.0334 -0.0395,0.008 -0.003,0 -0.0357,-0.009 -0.003,-0.002 -0.0114,-0.008 -0.0334,-0.0273 -0.0215,-0.0273 -0.0167,-0.0126 -0.0174,0.0135 -0.036,0.0523 -0.002,0.0103 -0.002,0.0153 0.008,0.0402 0.008,0.009 0.0102,0.0109 0.0631,0.0419 0.0114,-0.002 -0.0204,0.1835 0.001,0.0201 5e-4,0.004 0.0186,0.0665 0.003,0.005 0.003,0.004 0.0156,0.009 0.009,-10e-4 0.1458,-0.0322 0.005,-0.003 0.086,-0.1 0.007,-0.0179 0.016,-0.0461 -10e-4,-0.003 -0.005,-0.003 -0.0401,-0.003 -0.0129,0 0.1414,-0.2468 0.0587,-0.041 0.1333,-0.0255 0.006,10e-5 0.007,0.003 0.0521,0.0824 0.0339,0.1195 5e-4,0.005 -0.002,0.0237 -0.003,0.008 -0.007,0.0128 -0.008,0.015 -0.005,0.007 0.4629,0.2632 0.3753,-0.0413 0.006,-0.007 0.0301,-0.0357 0.0129,-0.0264 9e-4,-0.008 4e-4,-0.0764 -0.0214,-0.0511 -0.0135,-0.0283 -0.0134,-0.0201 -0.008,-0.0119 -0.0109,-0.002 -0.2202,0.0102 -0.1125,0.0404 -0.0382,0.0307 -0.006,0.0182 -0.001,0.0191 -0.009,0.03 -0.0282,0.0321 -0.0172,0.002 -0.0625,-0.005 -0.0145,-0.006 -0.0108,-0.008 -0.009,-0.0146 -0.008,-0.0237 0.0246,-0.2029 0.008,-0.0245 0.1599,-0.145 0.1771,-0.1622 0.137,-0.1437 0.0511,-0.5084 0.1751,-0.2195 0.003,0.005 0.007,0.004 0.005,6e-4 0.007,0 0.0312,-0.0173 0.041,-0.1304 0.0126,-0.0562 5e-4,-0.007 -4e-4,-0.0195 -0.002,-0.009 -0.041,-0.0584 -0.1636,-0.1036 -0.006,-0.004 -0.0235,-0.5169 -0.2439,-0.1424 -0.0212,-0.007 -0.0134,-0.024 -0.0676,-0.1456 -0.009,-0.0878 z m -3.826,-0.0106 -0.004,-0.006 -0.002,-0.002 -0.006,10e-4 -0.003,0.003 -0.002,0.004 -0.003,2e-4 -0.004,-0.001 -0.004,4e-4 -10e-4,0.005 0,0.006 10e-4,0.003 0.008,0.007 0.0123,0.004 0.003,-0.003 0.004,-0.009 5e-4,-0.003 1e-4,-0.01 z m -2.6534,0.5439 -0.002,2e-4 -0.003,10e-4 -0.001,6e-4 -0.003,0.003 -1e-4,10e-4 1e-4,0.0125 0.001,0.006 0.002,0.003 0.004,0.002 0.007,-10e-4 0.004,-0.004 0.0127,-0.0131 0.002,-0.003 -0.002,-0.003 -0.005,-0.001 -0.004,-10e-4 -0.01,4e-4 -0.003,-0.003 z m 5.951,0.229 0.003,-0.006 -0.0117,-0.0331 -0.008,-0.0104 -0.005,-0.002 -0.003,0.005 -0.003,0.0119 -10e-4,0.008 -6e-4,0.004 0.003,0.005 0.013,0.0145 0.004,0.004 0.005,9e-4 0.006,-0.002 z m -3.979,0.009 0.0161,-0.005 0.001,-0.003 -0.001,-0.0111 9e-4,-0.004 0.001,-0.008 0.002,-0.0163 -2e-4,-0.006 -9e-4,-0.004 -0.006,-0.003 -0.003,0.001 -0.004,0.003 -0.0125,0.0246 -0.001,0.005 1e-4,0.0206 2e-4,0.004 0.004,0.003 0.005,-0.001 z m 3.9803,0.0629 -0.005,-6e-4 -0.0331,0.004 2e-4,0.005 0.0159,0.0477 0.0167,0.0103 0.007,0.002 0.005,0 0.006,-0.0192 -0.003,-0.0449 -0.005,-0.004 -0.005,0.002 9e-4,-0.003 z m -0.2768,0.163 -0.003,5e-4 -3e-4,0.007 0.001,0.007 0.003,0.008 0.006,0.013 0.01,0.0191 0.003,0.006 0.005,0.002 0.0168,-0.0105 0.005,-2e-4 0.0367,0.0172 -2e-4,0.007 0.004,2e-4 0.004,-0.003 0.002,-0.004 0.006,-0.0122 0.002,-0.007 -0.004,-0.006 -0.007,-0.008 -0.008,-0.005 -0.0102,-0.004 -0.01,0.0129 -0.005,0.004 -0.005,0.002 -0.007,-0.002 -0.005,-0.004 -0.0139,-0.0228 -0.009,10e-4 -0.0155,-0.0176 z m 2.4247,0.1485 -0.009,-0.006 -0.007,0.003 -0.007,0.004 0.008,0.011 0.0157,0.0106 -3e-4,-0.0218 z m -0.01,0.0389 0.003,-0.005 0.003,-0.005 -0.005,-0.007 -0.002,-0.002 -0.0165,-0.002 -0.004,0.0169 0.018,0.0114 0.004,-0.006 z m -0.0556,0.081 0.0202,-0.016 -0.007,-0.0106 -0.0318,0.007 -0.003,0.004 -0.005,0.007 0.002,0.007 0.002,0.008 0.0214,-0.006 z m 0.0482,0.008 -0.004,-0.002 -0.007,-0.003 -0.004,0.007 -0.003,0.005 0.0177,0.007 0,-0.0133 z m -3.4219,0.302 0.039,-0.0367 0.0162,-0.0205 0.003,-0.0529 -0.001,-0.0469 -0.001,-0.005 -0.0186,-0.0491 -0.006,-0.005 -0.0143,-0.0101 -0.0479,0.0371 -0.0335,0.0261 -0.006,0.0111 5e-4,0.008 0.0676,0.1441 0.002,10e-5 z m 1.0059,0.0885 5e-4,-0.003 -7e-4,-0.004 -0.006,-0.0124 -0.003,-0.004 -0.0296,0.0129 -1e-4,0.002 0.002,0.0102 0.001,0.002 0.003,0.001 0.0171,0.003 0.0149,-0.008 z m -1.2482,0.9707 0.007,-7e-4 0.1518,-0.0364 0.1016,-0.0367 0.0568,-0.0225 0.0275,-0.0124 0.0327,-0.0192 0.0163,-0.0169 0.0124,-0.0177 0.0148,-0.0239 0.0171,-0.0497 0.0176,-0.0527 0.0114,-0.0375 0.01,-0.0347 0.0124,-0.062 0.002,-0.0192 8e-4,-0.0132 0.001,-0.0208 -0.07,-0.2863 -0.02,-0.0506 -0.0172,-0.036 -0.0253,-0.0438 -0.0216,-0.0364 -0.0112,-0.0102 -0.007,-0.006 -0.009,-0.004 -0.0579,-0.0181 -0.0333,-0.005 -0.1943,0.009 -0.0102,0.0106 -0.0125,0.0133 -0.4029,0.4281 -0.003,0.006 -0.0426,0.2362 -0.002,0.06 -6e-4,0.0228 5e-4,0.006 0.003,0.005 0.4316,0.1771 0.0131,-4e-4 z m -3.088,-0.711 -0.002,-0.009 -0.008,-0.0125 -0.0104,-0.0106 -0.01,-0.004 -0.002,-0.004 -0.004,0.005 -0.003,0.004 0.003,0.0242 0.0109,0.005 0.0128,0.003 0.0108,0.003 0.003,-0.004 z m 4.1827,-0.005 -0.001,-0.004 -0.003,-0.002 -0.005,-0.002 -0.008,-0.004 -0.003,0.004 -0.002,0.004 -9e-4,0.005 4e-4,0.005 0.001,0.005 0.0244,0.0311 0.004,0.003 0.003,0.002 0.003,10e-4 0.0115,0.001 0.003,-0.003 -0.001,-0.004 -0.003,-0.01 -0.0187,-0.0322 -0.004,0.002 -2e-4,-0.003 z m -1.556,0.2298 -0.004,-4e-4 -0.0162,0.007 -0.006,0.006 -9e-4,0.0149 5e-4,0.007 0.001,0.006 10e-4,0.006 0.008,0.0178 0.006,0.003 0.0359,-0.004 0.006,-0.004 0.005,-0.009 1e-4,-0.009 -0.01,-0.0291 -0.003,-0.006 -0.0235,9e-4 -9e-4,-0.008 z m -2.0931,0.3375 0.0266,-0.0124 0.0133,-0.0104 -0.004,-0.0122 -0.002,-0.002 -0.01,-0.007 -0.0249,-0.0163 -0.0125,-0.002 -0.01,-0.0102 -0.064,0.01 -0.006,0.0254 -1e-4,0.0218 0.0426,0.0139 0.0125,0.002 0.016,0.002 0.0226,-0.003 z m 5.1325,0.4197 0.01,-0.005 0.0231,-0.058 0.004,-0.01 -9e-4,-0.008 -0.0238,-0.0597 -0.0598,-0.0406 -0.006,-0.0151 -0.005,-0.002 -0.0105,0.005 -0.0107,0.0132 -0.004,0.007 -0.0101,0.0351 -0.003,0.0103 0.0123,0.0385 0.007,0.0191 0.0747,0.0687 0.004,-3e-4 z m 0.0475,-0.1405 0.003,-6e-4 0.005,-0.005 -5e-4,-0.006 -0.002,-0.0107 -0.004,-0.009 0.0179,-0.0161 -0.006,-0.003 -0.0361,0.0256 -0.002,0.003 4e-4,0.008 0.004,0.008 0.006,0.004 0.001,8e-4 0.002,10e-4 0.01,-8e-4 z m -0.8889,0.4843 0.009,-0.002 0.008,-0.0166 0,-0.003 -0.006,-0.0804 -0.003,-0.0145 -0.006,-0.012 -0.006,-0.012 -0.005,-0.008 -0.004,-9e-4 -0.008,10e-4 -0.0243,0.0132 -0.004,0.002 -0.005,0.01 -0.0104,0.0298 9e-4,0.004 0.007,0.0304 0.006,0.003 -0.003,0.01 -0.007,0.007 -0.0221,0.0123 -0.004,0.0136 -9e-4,0.008 0.005,0.003 0.068,0.005 0.0136,-0.002 z m -0.0652,-0.0543 0.001,-0.005 -0.004,-0.0208 -0.004,-0.006 -0.004,-0.004 -0.009,0.003 -0.003,0.008 0.003,0.0217 0.003,0.003 0.01,0.003 0.007,-0.003 z m 2.1394,0.5402 0.0511,-10e-4 0.0507,-0.002 0.0601,-0.0636 0.005,-0.005 -0.0198,-0.04 -0.0661,-0.0804 -0.0221,-0.011 -0.0134,-0.002 -0.0148,-0.002 -0.1821,-0.0212 -0.004,-0.007 -0.0155,10e-4 -0.0118,0.004 -0.0315,0.0168 -0.001,0.005 -0.002,0.0132 0.002,0.006 0.0498,0.0381 0.0399,0.0372 0.0181,0.0181 0.0154,0.0237 0.003,0.005 6e-4,0.007 -0.0187,0.01 0.0199,0.0162 0.0128,0.009 0.0526,0.0279 0.0221,-2e-4 z m -0.127,-0.0787 -0.006,-0.008 -0.005,-0.008 -0.006,-0.005 -0.004,-0.002 -0.0116,-0.006 -0.004,-0.002 -0.003,-4e-4 -0.005,-6e-4 -0.01,5e-4 -0.002,0.004 3e-4,0.006 0.0181,0.0127 0.017,0.0103 0.0127,0.005 0.008,-0.006 z m -13.4877,0.2435 -0.003,-0.004 4e-4,-0.006 -0.001,-0.002 -0.0137,0.005 9e-4,0.009 3e-4,0.003 0.016,-0.004 z m 0,0 -0.002,0.004 -0.005,0.0117 -0.002,0.0137 0.0169,-0.007 0.004,-0.008 0.007,-0.0125 0.002,-0.007 0.001,-0.006 -0.0132,-6e-4 -0.005,0.005 -0.004,0.007 z m 12.898,0.1933 -0.0157,-0.006 -0.0328,0.0118 -0.009,0.006 -0.001,0.005 -8e-4,0.006 0.004,0.008 0.0111,0.01 0.0407,0.0161 0.0181,10e-5 0.008,1e-4 0.009,-0.004 0.008,-0.003 0.006,-7e-4 0.005,0.004 0.0104,-0.007 0.009,-0.0243 8e-4,-0.003 -7e-4,-0.009 -7e-4,-0.005 -0.005,-0.004 -0.005,-0.002 -0.005,0.003 -0.009,10e-4 -0.0454,-0.005 z m 2.2058,1.0688 0.01,-0.0118 0.0119,-0.0221 0.003,-0.006 0.002,-0.0213 -0.006,-0.0329 -0.004,-0.006 -0.003,-0.006 -0.002,-0.003 -0.002,-0.001 -0.0243,0.008 -0.002,0.002 -0.003,0.003 -0.0106,0.0118 -0.006,0.02 -10e-4,0.007 3e-4,0.009 0.006,0.0234 0.001,0.003 0.004,0.009 0.001,0.003 0.003,0.004 0.0162,0.009 0.007,-0.001 z m -0.0211,0.2367 0.0852,-0.0966 0.007,-0.0147 0.003,-0.0169 -9e-4,-0.004 -0.008,-0.0173 -0.0207,-0.009 -6e-4,-0.008 -0.003,-0.006 -0.0679,0.0267 -0.012,0.007 -0.0479,0.0371 -0.0373,0.0688 -10e-4,0.008 10e-4,0.009 0.004,0.008 0.005,0.01 0.004,0.008 0.009,0.005 0.0243,0.009 0.0563,-0.0247 z m 0.1499,-0.0546 0.003,-0.004 0.005,-0.005 0.0144,-0.0187 0.004,-0.007 0,-0.004 -0.005,-0.0512 -0.004,-0.005 -0.004,-9e-4 -0.0176,-0.001 -0.0275,0.003 -0.008,0.007 -0.012,0.0197 -0.009,0.0249 -0.005,0.0145 -9e-4,0.004 0.005,0.005 0.0512,0.0171 0.006,0.002 0.004,-7e-4 z m -0.2002,0.1174 -0.002,-0.002 -0.007,-0.006 -0.004,-6e-4 -0.005,6e-4 -0.009,0.004 -0.0127,0.013 -0.002,0.004 0.002,0.003 0.0178,0.0188 0.0372,0.009 0.0332,-0.009 0.0108,-0.007 6e-4,-0.0106 -0.004,-0.002 -0.0351,-0.006 -0.009,0.002 -0.0124,-0.0115 z m 0.2007,0.2529 0.001,-0.0217 0.003,-0.0106 9e-4,-0.004 -0.002,-0.005 -0.002,-0.004 -0.002,-0.005 -0.003,-0.005 -0.006,-0.005 -0.0128,-3e-4 -0.0187,0.0263 -0.003,0.008 -0.002,0.0117 -3e-4,0.003 0.001,0.005 0.007,0.0185 0.003,0.001 0.0161,0.005 0.003,8e-4 0.0162,-0.018 z m -0.0386,0.0915 6e-4,-0.006 0.003,-0.0529 -0.007,-0.0285 -0.002,-0.005 -0.009,-0.006 -0.004,-10e-4 -0.0192,0.004 -0.0175,0.0119 -0.003,0.006 -0.004,0.01 -4e-4,0.009 0.006,0.0326 0.002,0.005 0.002,0.005 0.004,0.007 0.006,0.006 0.004,0.002 0.0127,0.004 0.008,9e-4 0.009,4e-4 0.008,-0.003 z m 0.3785,0.9937 0.0118,-0.016 -0.005,-0.0112 -0.003,-0.004 -0.005,-0.005 -0.0136,-0.009 -0.0113,-0.003 -0.002,0.005 -0.002,0.008 7e-4,0.0217 0.0107,0.009 0.009,0.006 0.0101,-0.001 z m -0.0554,0.0677 0.003,-0.009 -0.008,-0.0116 -0.0139,-0.007 -0.008,-9e-4 -0.005,0.002 0.001,0.0154 0.007,0.006 0.009,0.005 0.005,0.002 0.0101,-0.003 z m 1.03,0.5509 0.001,-0.0808 -0.006,-0.0234 -0.005,-0.009 -0.003,-0.009 -0.004,-0.002 -0.0142,-10e-4 -0.0767,0.0266 -0.0986,0.1164 -0.056,0.0861 4e-4,0.006 -0.007,0.0149 -0.007,0.01 -0.0407,0.0312 -0.002,8e-4 -0.0981,-0.0427 -0.008,-0.006 -0.008,0.007 -0.009,0.0129 -0.002,0.0129 -0.001,0.009 -0.001,0.007 0.0198,0.0474 0.1296,0.1518 0.0386,0.0138 0.0124,0.004 0.1129,0.0101 0.009,-0.005 0.0238,-0.018 0.0459,-0.0579 0.0161,-0.0264 0.0391,-0.2856 z m -0.2908,0.0377 0.009,-0.003 0.004,-0.002 0.007,-0.005 0.002,-0.004 -4e-4,-0.008 -0.006,-0.002 -0.009,-6e-4 -0.008,3e-4 -10e-4,0.003 -8e-4,0.007 -8e-4,0.007 -0.006,0.003 0.001,0.006 0.003,5e-4 0.005,-0.002 z m -0.4767,0.2037 0.007,-0.001 0.009,-0.0166 -0.002,-0.004 -0.003,-0.005 -0.01,-0.006 -0.005,0 -0.0149,0.008 -0.004,0.004 2e-4,0.005 0.003,0.004 0.003,0.005 0.008,0.005 0.005,10e-4 0.004,-8e-4 z m -0.0479,0.1469 -0.006,-0.004 -0.0131,-0.004 -0.004,7e-4 -0.006,0.005 -0.0282,0.0365 6e-4,0.0102 0.004,0.0163 0.005,0.0102 0.002,0.002 0.0228,0.0141 0.0121,0.006 0.0859,0.0162 0.004,3e-4 0.005,-6e-4 0.003,-0.003 0.005,-0.0122 0.001,-0.004 -6e-4,-0.007 -6e-4,-0.006 -0.0263,-0.0613 -0.002,-0.002 -0.0121,-0.006 -0.0169,9e-4 -0.008,0.002 -0.009,0.004 -0.0171,-0.0144 z m -0.3591,0.0648 -0.005,-0.004 -0.007,6e-4 -0.008,0.003 -0.003,0.004 -0.1651,0.218 -0.0114,0.0167 -0.002,0.007 0.002,0.005 0.0581,0.0969 0.072,0.028 0.0433,0.007 0.0167,0.002 0.0113,0.001 0.0174,-0.001 0.0181,-0.007 0.0838,-0.0535 0.0117,-0.051 0.002,-0.1025 -0.002,-0.0471 -6e-4,-0.0114 -0.003,-0.0128 -0.003,-0.01 -0.006,-0.009 -0.007,-0.0115 -0.008,-0.007 -0.0239,-0.0169 -0.014,-0.003 -0.007,-10e-4 -0.0369,0.0166 -0.023,-0.0576 z m 0.2714,0.0972 0.0254,-0.0106 0.008,-0.005 0.0187,-0.0147 0.002,-0.004 -0.002,-0.001 -0.0907,-0.0468 -0.0377,0.0113 -0.0144,0.0132 -0.0144,0.0198 -0.003,0.0111 -0.001,0.013 0.004,0.0133 0.015,0.008 0.09,-0.008 z m -1.8205,1.1505 0.002,-0.008 -0.0116,-0.009 -0.006,-0.005 -0.006,-0.003 -0.0442,0.002 -0.001,0.002 0.002,0.003 0.0442,0.0316 0.001,8e-4 0.002,4e-4 0.011,0.002 0.006,-0.0171 z m -22.4476,1.3135 0.003,-0.002 0.003,-0.002 0.001,-0.002 0.005,-0.02 8e-4,-0.004 9e-4,-0.0705 4e-4,-0.0418 -0.003,-0.005 -0.004,-0.001 -0.0891,0.002 -0.002,0.003 -3e-4,0.003 0.0352,0.1312 0.005,0.005 0.006,0.003 0.027,0.003 0.0107,-0.002 z m 26.3353,1.5404 0.0129,-0.006 0.003,-0.002 0.0209,-0.0142 0.0206,-0.014 0.009,-0.0379 -3e-4,-0.0121 -0.009,-0.0243 -0.0163,-0.0256 -0.0121,-0.018 -0.014,-0.0201 -0.0398,-0.0375 -0.0541,-0.008 -0.0489,0.001 -0.0128,0.003 -0.008,0.003 -0.008,0.004 0.0128,0.1176 0.004,0.013 0.0779,0.0862 0.008,0.009 0.0538,-0.0166 z m -1.9053,0.837 -0.002,4e-4 -0.0148,0.01 -10e-4,8e-4 -0.002,0.006 -0.002,0.009 0,0.002 0.002,0.0107 0.007,0.0198 0.006,0.008 0.003,0 0.002,-6e-4 0.003,-0.001 0.008,-0.004 0.0291,-0.0165 0.002,-0.002 0.007,-0.006 10e-4,-0.002 0.002,-0.003 -0.004,-0.0123 -0.005,-0.0158 -0.002,-0.002 -0.002,-5e-4 -0.0141,-3e-4 -0.002,0 -0.008,2e-4 -0.011,10e-4 -0.002,-0.002 z m -2.0765,1.3031 0.0137,-0.003 0.007,-0.0117 0.0101,-0.0262 -0.007,-0.0129 -0.0292,-0.01 -0.006,0.01 -0.006,0.0312 -9e-4,0.0125 0.007,0.0138 0.0112,-0.004 z m 3.6704,0.3185 0.002,-0.007 5e-4,-0.009 -6e-4,-0.006 -0.003,-10e-4 -0.006,0.004 -0.005,0.008 -0.002,0.008 0.005,0.005 0.004,9e-4 0.005,-0.003 z m -0.0526,0.1072 0.0138,-0.0222 -10e-4,-0.0137 -0.007,-0.006 -0.005,-0.004 -0.005,-0.004 -0.0152,-0.002 -0.003,0.007 -0.005,0.0124 7e-4,0.0101 0.007,0.0244 0.003,0.006 0.0171,-0.008 z m -4.0884,-0.006 0.005,-0.004 0.007,-0.006 0.004,-0.022 -0.004,-0.006 -0.007,-0.0174 -0.0494,0.0224 -0.0234,0.0305 -9e-4,0.0129 0.0228,0.0103 0.0132,0.005 0.033,-0.0253 z m 4.3725,-0.003 0.004,-0.003 -6e-4,-0.005 -0.001,-0.007 -0.009,-0.008 -0.003,0.005 -0.0161,0.003 -0.0105,5e-4 -0.001,0.005 0.0115,0.007 0.018,0.003 0.003,6e-4 0.005,-0.002 z m -0.021,0.0429 0.003,-0.003 0.002,-0.008 -0.007,-0.0259 -0.008,3e-4 -0.004,0.004 -0.005,0.006 -9e-4,0.0113 0.004,0.0118 0.0109,0.008 0.005,-0.005 z m -0.2958,0.007 0.0113,-0.005 -0.017,-0.0296 -0.0121,0.004 -0.009,0.01 -0.008,0.01 0.0166,0.0179 0.0173,-0.006 z m 0.1838,-0.0122 0.006,-0.006 -3e-4,-0.006 -0.01,-0.009 -0.008,0.006 0.006,0.0164 0.006,-10e-4 z m -2.4266,-0.004 0.0157,-0.002 0.0103,-0.004 -9e-4,-0.005 -0.005,-0.005 -0.0114,4e-4 -0.003,0.002 -0.009,0.007 -0.006,0.005 -0.01,0.011 0.002,0.002 0.007,0.003 0.009,-0.0134 z m 2.7297,0.1403 0.006,-0.005 0.0189,-0.0231 0.002,-0.006 -0.0157,-0.0159 -0.0122,-10e-4 -0.0283,0.0308 9e-4,0.0208 0.008,0.003 0.0128,10e-4 0.007,-0.005 z m -4.6612,0.0364 0.0353,-0.01 0.0117,-0.004 0.0483,-0.0401 0.008,-0.0105 -7e-4,-0.0162 -0.0124,-0.002 -0.0156,-0.003 -0.1108,0.0592 -0.008,0.006 -0.003,0.002 0.008,0.0194 0.012,9e-4 0.0132,5e-4 0.0148,-0.003 z m -0.003,-0.0545 0.0112,-0.004 -0.009,-0.0215 -0.008,-10e-4 -0.009,-10e-4 -0.0104,0.006 -0.003,0.0125 0.002,0.004 0.005,0.008 0.0209,-0.002 z m 0.5812,0.0297 0.0101,-0.008 0.0121,-0.0197 0.001,-0.004 0.002,-0.007 -0.016,-0.008 -0.0148,10e-4 -0.0124,0.003 -0.003,0.002 -0.007,0.004 -0.015,0.0358 0.004,0.008 0.002,0.003 0.009,0.004 0.005,0.002 0.0225,-0.0168 z m 1.9541,0.5364 0.007,-0.0117 -0.0101,-0.009 -0.002,-0.008 -0.0173,-0.004 -0.0481,0.0154 -0.0117,0.0256 -0.001,0.007 0.006,0.0104 0.006,0.009 0.011,0.005 0.061,-0.0387 z m 3.0603,0.3809 0.0122,-0.009 0.001,-0.0105 -0.007,-0.01 -0.0149,0.01 -0.005,0.008 -1e-4,0.009 0.005,0.005 0.008,-0.004 z m -0.2136,0.1316 0.003,-0.005 -5e-4,-0.005 -0.004,-0.008 -0.0161,-0.011 -0.0121,0.0128 -0.002,0.004 -4e-4,0.004 0.003,0.007 0.003,0.002 0.0202,0.002 0.006,-0.002 z m -0.4433,0.2327 -0.006,-0.0165 -0.1271,-0.0538 -0.0359,-0.0106 -0.0123,0.0428 -0.0429,0.0375 -0.0111,0.004 -0.006,8e-4 -0.0131,0.002 -0.006,-0.002 -7e-4,-5e-4 -0.003,-0.002 -0.002,-0.008 -0.0106,-0.0114 -0.009,0.003 -0.003,0.006 0.003,0.0154 0.004,0.011 0.0215,0.0335 0.009,0.0128 0.0112,0.006 0.0359,0.006 0.146,-0.0305 0.0288,-0.0112 0.0128,-0.007 0.0176,-0.0282 z m -0.4903,0.0898 -0.004,-0.005 -0.008,-0.002 -0.012,0.003 -0.0197,0.0205 -0.002,0.004 -0.0118,0.0271 -0.002,0.0132 0.003,0.0134 0.006,0.008 0.009,0.007 0.0492,-0.0315 0.007,-0.0148 0.006,-0.0156 -0.007,-0.017 -0.001,-0.003 -0.006,-0.0101 -0.003,0.002 -0.003,0.007 5e-4,-0.006 z m 1.0533,0.4205 0.0367,-0.0255 0.0102,-0.0138 -0.007,-0.006 -0.0485,-0.0276 -0.0125,-0.007 -0.004,-9e-4 -0.0225,0.0152 -0.0186,0.0168 0.004,0.0122 0.001,0.003 0.0223,0.0205 0.0243,0.0149 0.006,0.003 0.008,-0.006 z m 3.5589,0.1521 0.0109,-0.004 0.0153,-0.0156 0.0186,-0.0285 -0.005,-0.0222 -0.01,-0.009 -0.01,-0.006 -0.004,-0.003 -0.0275,-0.002 -0.007,0.004 -0.005,0.0355 0.001,0.0166 0.009,0.0332 0.001,0.002 0.0102,-9e-4 z m -2.3566,-0.0627 0.0127,-0.0119 6e-4,-0.0271 -0.005,-0.002 -0.008,0 -0.0106,0.0122 -0.006,0.0228 6e-4,0.011 0.0158,-0.005 z m -1.0243,0.4947 0.009,-0.0407 -0.0247,-0.018 -0.0208,-10e-4 -0.001,0.0185 0.0109,0.0417 0.0271,-2e-4 z m 1.5341,0.8381 0.0244,-0.0195 0.0353,-0.0469 0.004,-0.0113 0.002,-0.0149 -0.007,-0.007 -0.0218,-0.009 -0.0153,5e-4 -0.0107,0.004 -0.009,0.005 -0.0178,0.0159 -0.0173,0.0166 -0.004,0.028 -0.002,0.0256 0.002,0.0132 0.0117,0.01 0.0237,-0.01 z m 0.0462,-0.0251 0.0107,-0.006 0.005,-0.004 0.008,-0.0117 0.001,-0.003 -7e-4,-0.002 -0.003,-0.002 -0.0106,0.004 -0.02,0.0186 5e-4,10e-4 0.003,0.005 0.005,0.001 0.002,-4e-4 z m -0.5262,0.8556 -0.002,-0.0254 0.004,-0.0654 -0.011,-0.007 -0.0261,0.002 -0.0298,0.0511 -1e-4,0.0234 0.0138,0.0163 0.0134,0.007 0.0379,-0.002 z m 0.2549,4.0947 0.076,-0.024 0.0161,-0.009 0.006,-0.0149 -1e-4,-0.009 -1e-4,-0.0109 -0.002,-0.0129 -0.008,-0.0114 -0.0116,-1e-4 -0.0967,0.0598 -0.0113,0.0128 -0.003,0.0174 0.0164,0.007 0.0184,-0.004 z m 1.677,2.2975 0.0272,-0.006 0.007,-0.003 0.005,-0.002 0.006,-0.009 0.0138,-0.0258 0.002,-0.0133 -0.009,-0.006 -0.006,9e-4 -0.005,10e-4 -0.0705,0.0305 -0.004,0.008 -0.002,0.005 0.004,0.011 0.004,0.003 0.006,0.004 0.0163,0.004 0.006,-10e-4 z m -1.45462,-8.50524 0.34718,-0.11712 0.37646,0.19994 -0.13093,0.21835 0.0335,0.18405 -0.0448,0.11921 -0.19241,0.0477 -0.14766,-0.12131 -0.51031,-0.1807 -0.0627,-0.1213 0.15895,-0.3087 z m -0.81148,-0.69436 -0.18823,-0.0335 -0.23843,-0.0418 -0.28444,0.0544 -0.0627,-0.0594 0.0598,-0.15602 0.47685,-0.0983 0.21792,-0.25934 0.26353,-0.1305 0.7433,-0.55716 0.10457,-0.25307 0.15477,-0.0335 -0.0209,0.1213 0.20915,0.27607 -0.0418,0.0711 -0.71109,0.42247 -0.2217,0.30201 z m -49.6802,-4.28328 -0.12549,-0.0878 -0.20036,0.0285 -0.0222,-0.0837 0.11336,-0.22086 -0.13093,-0.26017 0.0167,-0.33129 0.0765,-0.18656 0.2677,-0.22127 0.0711,-0.25934 -0.0418,-0.13344 -0.24679,-0.0205 -0.0263,-0.10457 0.14766,-0.2401 0.0586,-0.34969 0.10039,-0.0878 0.27063,-0.0385 0.19785,-0.19242 0.18321,0.0335 0.343,-0.38901 0.0669,-0.15477 0.24679,-0.55214 0.24679,-0.21793 0.23424,-0.0163 0.15477,0.0648 0.0167,-0.18321 -0.16314,-0.6107 -0.13803,-0.12131 -0.0502,-0.26352 0.046,-0.1259 0.2037,0.005 0.10457,0.0786 0.32251,-0.15477 0.28443,0.009 0.18823,-0.14682 0.25098,-0.49358 0.10039,-0.0121 0.35972,0.44966 -0.13803,0.0682 0.0456,0.279 0.47727,0.15644 0.28778,0.43 -0.42958,0.50655 -0.0335,0.22546 0.16606,0.19283 -0.12549,0.45635 -0.10875,0.12382 0.004,0.18488 -0.0753,0.0954 -0.2217,-0.18614 -0.31371,0.009 -0.31372,-0.16397 -0.22169,0.0167 -0.35137,-0.0941 -0.23006,-0.20287 -0.25097,0.40658 -0.1715,-0.01 -0.19701,-0.007 -0.16397,0.28025 0.18028,0.19242 -0.84536,0.87882 0.004,0.10457 0.13385,0.0456 0.10039,-0.0456 0.0418,0.3179 0.23843,0.14724 0.19241,0.2995 0.0418,0.3911 -0.0586,0.31873 -0.24679,0.26603 -0.18112,0.0176 -0.22588,-0.0243 -0.17568,-0.11712 z m -0.10876,0.65253 0.0962,0.17987 -0.0962,0.13803 -0.0837,-0.0502 -0.16313,-0.38483 0.0837,-0.23006 0.0958,-0.0711 0.23549,0.28821 z m 50.56488,5.67744 -0.0878,0.11587 -0.27021,-0.12047 -0.25934,0.0381 -0.0958,-0.22546 -0.10457,-0.0786 -0.0958,0.18823 -0.0711,-0.009 -0.0435,-0.006 0.0456,-0.23508 -0.25934,-0.39068 -0.21333,-0.0883 -0.21792,0.33589 -0.24219,0.0611 -0.10458,-0.26353 -0.23507,-0.0607 -0.0753,-0.0786 0.25265,-0.54921 -0.16355,-0.0929 -0.077,-0.23466 -0.19241,0.0335 -0.0443,0.25767 -0.13803,0.0561 -0.31372,-0.44171 -0.46137,-0.28026 -0.005,-0.17066 0.19283,-0.0765 0.13302,-0.21374 0.46095,-0.73201 -0.0439,-0.0786 -0.15017,-0.0786 -0.33504,0.0544 -0.11671,-0.16355 -0.14807,0.0326 -0.046,0.16564 -0.2355,0.0263 -0.28778,0.40658 -0.29239,0.0958 -0.14807,0.12758 -0.19241,0.0104 -0.21542,-0.1305 -0.14724,-0.18321 0.23508,-0.10458 -0.005,-0.0502 -0.1,-0.0485 -0.2196,0.0548 -0.18823,-0.19241 -0.0502,0.0816 0.0878,0.24888 -0.092,0.0422 -0.20497,-0.25391 -0.19241,0.006 -0.12549,-0.14389 -0.10457,-0.0786 -0.19241,0.0544 -0.23843,0.20914 -0.63914,0.0711 -0.16564,0.13804 -0.11336,-0.0498 -0.0381,-0.2974 0.0167,-0.0163 0.1259,-0.13008 0.21584,0.0586 0.14807,-0.0422 0.15017,0.0167 0.0209,-0.0263 0.0711,-0.0991 -0.0665,-0.14305 -0.15936,0.0117 -0.37479,-0.0619 0.0958,-0.1372 0.10457,-0.0443 0.0606,-0.0293 0.32418,0.0607 0.13092,-0.12674 0.1213,0.009 0.37897,0.28778 0.36308,-0.0322 0.1991,0.14849 0.14222,0.0167 0.1715,-0.0958 0.16564,-0.32961 -0.15434,-0.20412 -0.0255,-0.1715 0.21793,-0.23006 0.13343,0.0498 0.005,-0.0289 0.0435,-0.25934 0.11294,-0.0544 0.009,-0.11336 -0.0778,-0.0615 0.1443,-0.15477 0.16941,0.0389 0.0167,-0.21458 0.18238,-0.20036 -0.43084,-0.37395 0.19241,-0.53374 0.12131,-0.0548 0.17149,0.0381 0.12967,-0.2539 0.18405,-0.0167 0.25098,-0.17108 0.0878,-0.059 0.15476,0.0711 0.38483,0.44464 0.32627,0.0548 0.0293,0.0929 -0.14808,0.16564 0.0213,0.14807 0.1,0.0381 0.0381,-0.16564 0.11336,-0.0502 0.2677,-0.44589 0.22169,-0.0335 -0.14765,-0.2037 -0.077,-0.24261 -0.0711,-0.0431 -0.71527,0.23006 -0.29281,-0.24135 -0.12548,-0.20454 -0.15017,-0.0264 -0.10917,-0.27523 -0.10875,-0.0217 -0.25265,-0.20036 -0.28067,0.0167 -0.14682,0.40156 -0.13344,0.0611 -0.11335,-0.17066 -0.12131,-0.009 -0.0126,0.46263 -0.238,-0.0661 -0.19241,-0.0498 -0.2514,0.11545 -0.13343,-0.16355 0.0167,-0.16439 0.2698,-0.41285 0.0439,-0.23801 -0.16564,-0.14932 0.19241,-0.23676 -0.10457,-0.0715 -0.16565,0.0765 -0.29698,0.3522 -0.21793,-0.0883 -0.30284,0.059 -0.15979,0.25934 -0.0268,0.17568 0.11294,0.0452 -0.0113,0.25892 -0.22002,0.0958 -0.28862,0.0259 -0.19242,-0.0878 0.0381,-0.19785 0.25892,-0.20914 0.0335,-0.0498 0.0878,-0.13762 0.0837,-0.45133 0.14222,-0.31372 -0.0586,-0.57305 0.12967,-0.14264 0.15058,0.0381 0.17987,-0.25808 -0.0121,-0.13385 -0.21375,-0.0498 -0.0611,-0.17024 0.0611,-0.24805 0.28862,-0.53917 0.092,-0.0611 0.0878,0.0376 0.0924,0.3681 0.21583,0.0167 0.28779,-0.25934 -0.0209,-0.12549 0.092,-0.0619 0.0335,-0.34676 0.13803,-0.19283 0.0293,-0.0385 -0.18404,-0.14222 0.0611,-0.14222 -0.0502,-0.45175 -0.10457,-0.0933 -0.39738,0.009 -0.12548,0.23842 -0.13385,0.0611 -0.0615,-0.14807 0.0259,-0.25934 0.13804,-0.39236 -0.0958,-0.12088 -0.16941,-0.0598 -0.20454,0.11712 -0.16564,-0.0167 -0.0477,-0.1213 0.0586,-0.15477 0.1213,0.004 0.1715,-0.092 -0.28694,-0.39738 0.0498,-0.24679 -0.10457,-0.0598 -0.25265,0.0117 -0.26519,0.13093 -0.0598,0.13217 0.0377,0.0264 0.26436,0.18321 -0.0983,0.12674 -0.44088,-0.0331 -0.32459,0.0991 -0.27607,-0.14933 -0.13051,0.13803 -0.4781,0.009 -0.14222,0.11336 0.0259,0.1464 0.21541,0.0958 0.0418,0.14264 -0.0753,0.30117 -0.28653,0.046 -0.35178,0.66048 -0.16564,0.77425 -0.0941,0.1669 0.0397,0.21375 -0.0949,0.0836 -0.11294,-0.0389 -0.077,-0.14305 0.0991,-0.0611 0.0611,-0.18823 0.0318,-1.43515 0.13678,-0.40742 -0.0251,-0.16438 -0.26352,0.0448 -0.046,-0.30493 -0.17986,-0.2355 0.0126,-0.36809 -0.14808,-0.21458 -0.53123,-0.10458 0.38901,-0.37478 0.0786,-0.24763 -0.033,-0.16481 -0.1669,-0.1213 -0.19241,0.0126 -0.32251,0.24219 -0.35303,-0.28778 -0.29699,0.0661 -0.1213,-0.12131 -0.16564,-0.15895 -0.24261,0.0765 -0.15895,-0.30493 0.0828,-0.37395 -0.0887,-0.24178 -0.20328,-0.0385 -0.20915,0.11545 -0.18823,-0.14891 -0.1213,0.0548 -0.2468,0.39236 0,0.12674 0.1464,0.0163 0,0.13302 -0.0958,0.1326 -0.39319,-0.10457 -0.0832,-0.0786 -0.0435,-0.35806 -0.0837,-0.0276 -0.10876,0.1464 -0.0544,0.27021 0.008,0.52286 -0.0586,0 -0.12632,-0.17066 -0.0284,-0.27607 -0.13385,-0.0786 -0.33463,0.0393 -0.092,-0.0795 0.0376,-0.14641 0.23759,-0.23089 -0.14807,-0.16104 -0.0376,-0.27398 -0.18363,-0.0498 -0.0611,-0.1 -0.23843,0.78638 0.0264,0.15017 0.13092,0.0268 0.023,0.10457 -0.18196,0.0832 -0.36809,-0.35136 -0.0502,-0.10039 0.49777,-0.98465 -0.0167,-0.0259 -0.28067,-0.45175 -0.0289,-0.092 0.0544,-0.16397 -0.0786,-0.0498 -0.24846,0.0548 -0.14682,-0.18196 -0.38943,-0.082 -0.12716,-0.16565 -0.1761,-0.0251 -0.0661,0.092 -0.082,-0.0502 -0.0715,-0.41829 -0.1761,-0.14808 -0.40783,0.13135 -0.0824,0.34718 -0.19785,-0.0878 -0.14222,0.0958 -0.31371,0.53165 -0.0711,-0.0427 0.0753,-0.28778 -0.0753,-0.14849 -0.2217,0.0335 -0.0272,-0.0226 -0.13762,-0.11503 -0.10457,0.0427 -0.22588,0.32585 -0.22128,0.0611 -0.36809,-0.42289 -0.11712,0.13803 -0.24679,0.059 -0.10457,0.2974 0.0753,0.16565 0.62325,-0.005 0.0837,0.12088 0.092,0.47351 -0.11586,0.67679 -0.16565,0.23173 -0.0264,0.24679 0.056,0.21333 0.0929,0.009 -0.0335,0.33965 0.0958,0 0.0657,0 0.19241,0.30159 -0.0816,0.36349 -0.35889,0.35722 -0.12548,0.33045 -0.73201,0.10876 -0.18405,-0.046 0.0606,-0.16564 -0.12757,-0.0669 -0.12549,0.28778 0.0962,0.22504 -0.13386,0.29782 -0.30117,0.3087 -0.4643,0.0502 -0.54879,0.20915 -0.40951,-0.0544 -0.25934,0.1715 -0.15476,-0.0167 -0.0251,-0.12131 -0.0544,-0.23047 -0.13385,-0.11671 -0.35555,0.0289 -0.22169,0.0879 -0.23842,0.23549 -0.43502,0.15477 -0.72323,0.86251 -0.34718,0.67094 0.0418,0.18363 -0.0657,0.10457 -0.16439,-0.0263 -0.14932,0.11712 -0.1531,0.33965 -0.44757,0.40197 -0.0958,0.27022 -0.0711,-0.0209 -0.1305,0.10458 -0.3681,0.40155 0.0167,0.22588 -0.3639,0.0167 -0.16481,0.38483 -0.11545,-0.10959 -0.1213,0.005 -0.58561,0.23005 -0.15393,0.18196 -0.20287,-0.0606 -0.0795,0.0832 0.0836,0.11335 0.0837,0.44757 -0.0795,0.0435 -0.26771,-0.16146 -0.0347,-0.0293 -0.15895,0.0669 -0.0878,0.13302 0.27566,0.42707 -0.11085,0.14264 0.1167,0.16564 -0.0289,0.10457 -1.69951,2.06133 -0.62743,0.56051 0.17568,0.0264 0.46806,-0.35136 0.0431,0.0786 -0.41327,0.39235 -0.36893,0.0167 -0.47267,0.45636 -0.302,0.12088 -0.31372,0.0431 -0.21793,-0.0661 -0.79057,-0.0113 -0.30953,0.21793 -0.20036,0.0331 -0.41285,-0.14808 -0.22588,0.14808 -0.24762,0.0117 -0.14766,0.1213 -0.0117,0.2539 -0.0786,0.0611 -0.22588,-0.0544 -0.24679,0.2539 -0.67344,0.27732 -0.78681,0.52286 -0.15894,0.20036 -0.14222,0.34133 -0.18196,0.34132 -0.3409,0.38065 -0.97462,0.69352 -0.77551,0.23717 -0.8303,0.39235 -1.76727,0.10458 -0.10457,0.005 -0.39236,0.0958 -0.27607,-0.0778 -0.40574,-0.29698 -0.36893,-0.15895 -0.56804,-0.55047 -0.1167,0.0883 -0.61865,0.0498 -1.17246,0.0878 -0.20915,-0.13302 -0.30284,0.0284 -0.34676,-0.0937 -0.11545,-0.10959 -0.35262,0.0427 -0.23633,-0.0652 -0.3911,-0.15937 -1.35066,-1.29377 -0.14222,-0.29113 -0.22169,-0.20412 -0.53457,-0.88008 0.0452,-0.16355 -0.1213,-0.55173 -0.12549,-0.14891 -0.0293,-0.22504 0.15477,-0.49023 0.0924,-0.29699 -0.033,-0.0602 -0.3225,0.0284 -0.62744,-0.79851 -0.28025,0.1305 -0.0941,0.32251 -0.20287,0.21374 -0.18237,0.35722 -0.005,0.25348 -0.15477,0.12131 -0.0786,0.17568 0.47267,0.42373 0.0167,0.12674 -0.0611,0.0611 0.0791,0.34718 0.17568,0.0167 0.24261,0.32543 0.1213,0.0443 0.23006,0.0786 0.10457,0.13804 0.10876,0.51826 -0.1142,0.38483 0.0377,0.25264 -0.69854,1.4728 -0.13093,0.11712 -0.0544,0.20914 0.0502,0.20915 -0.092,0.30493 -0.10039,0.0711 -0.12131,-0.0255 -0.0586,0.10457 0.0376,0.14222 -0.20915,0.14891 -0.18237,0.3752 -0.20915,0.18028 -0.0167,0.0121 -0.14807,0.0381 -0.0753,0.19911 0.13552,0.14807 0.0611,0.50195 -0.0335,0.494 -0.15895,0.18237 -0.26352,0.6015 -0.72364,0.73828 0.16731,0.10457 0.14808,0.0167 0.37102,0.43837 0.84536,0.68181 -0.009,0.10457 -0.0167,0.33673 0.0615,0.0929 0.16439,-0.20915 0.10457,0.005 0.0761,0.16565 0.24679,0.16564 0.27607,0.0284 0.0665,0.16355 -0.0958,0.21793 -0.17568,0.15937 -0.0765,0.49693 -0.25223,0.61697 -0.15937,0.63789 -0.34676,0.21794 -0.3225,0.0335 -0.0711,0.27481 -0.14264,0.0602 -0.38482,-0.0264 -0.0389,0 -0.0611,0.33045 0.13051,0.46849 0,0.6015 0.1213,0.57263 0.22086,0.26854 -0.10457,0.29281 0.24679,0.3798 0.0832,0.0163 0.0715,-0.19827 -0.0878,-0.18028 -0.0435,-0.42373 0.0765,-0.19702 0.24261,0.0109 0.0443,-0.11336 -0.19242,-0.33463 0.0452,-0.10457 0.33547,0 0.0661,-0.1167 0.31371,-0.52286 -0.16438,-0.29155 0.0284,-0.0715 0.34216,-0.0615 0.37479,0.0494 0.11335,0.077 0.0883,0.2426 0.13762,0.13093 0,0.36809 -0.10457,0.13051 -0.24219,0.0381 -0.077,0.15979 -0.16397,0.82445 0.0757,0.21416 0.19283,0.0117 0.20915,-0.13093 0.75417,0.18112 0.0163,-0.0284 0.0661,-0.14766 0.15978,0.11628 0.11001,-0.0263 0.0439,-0.46305 0.13302,-0.21792 0.52746,0.11628 0.13093,-0.0661 0.004,-0.22587 0.37562,-0.16565 0.13176,0 0.12131,0 0.49776,0.18112 0.0711,0.14222 0.0824,0.1715 0.13218,0.1213 0.11336,0.0958 0.0878,0.17108 0,0.0167 0.008,0.20036 -0.0167,0.028 -0.0879,0.14891 -0.0661,0.1213 0.0117,0.12089 0.14807,0.23549 0.49693,1.56441 0.1715,0.37269 -0.046,0.37395 0.0335,0.18321 0.38064,-0.1761 0.27607,0.14264 0.33463,0.0619 0.13386,0.11586 0.17986,0.92986 0.15895,0.21793 0.0962,0.12674 -0.0962,0.21793 0.34718,0.75794 0.35136,1.49747 -0.004,0.005 c 0.0627,0.1008 0.10792,0.20537 0.13385,0.30493 0.0619,0.24721 0.72783,0.0602 1.13775,0.0602 0.52704,-0.009 0.42247,-0.16815 0.68181,-0.44046 0.25139,-0.25892 0.62743,-0.63496 1.05827,-0.63831 0.54378,-0.005 1.22559,0.90267 1.5895,1.39751 0.19241,0.25892 0.34718,0.76798 0.51073,0.91521 0.4848,0.42666 0.39068,0.58059 0.46807,0.89849 0.12632,0.48438 -0.22002,0.6885 0.21458,0.79809 0.10959,0.0305 0.90894,0.39027 1.02355,0.51116 0.10039,0.1 0.13804,0.20454 0.15477,0.2974 0.0335,0.17568 -0.007,0.30618 0.19743,0.25265 0.48438,-0.13093 0.61112,-0.0519 0.88176,-0.34008 0.2928,-0.302 0.20914,0 0.71987,-0.13803 0.39403,-0.0995 0.48145,-0.3087 0.68265,-0.51784 0.2974,-0.30494 0.30577,-0.71444 0.85917,-0.72322 0.40574,-0.005 0.62116,-0.3681 1.02899,-0.37312 0.53959,-0.003 0.70983,0.005 0.96206,-0.25432 0.21333,-0.22211 0.65379,0.0678 0.71528,-0.20036 0.0837,-0.34718 0.37102,-0.53917 0.43083,-0.7914 0.11294,-0.47852 -0.25139,-1.31008 0.0418,-1.23856 0.43084,0.10458 0.77551,0.0418 0.92442,0.34677 0.0874,0.1761 0.37688,0.58937 0.53165,0.62743 0.31371,0.0761 0.73619,-0.34216 0.98298,-0.33045 0.62325,0.0289 0.95788,0.67763 1.05032,0.77049 0.14347,0.14556 0.30159,0.60568 0.55173,0.60568 0.5262,-0.005 0.65671,0.0786 0.97043,0.23717 0.15393,0.0786 0.40574,0.5396 0.40574,0.81483 0.004,0.56804 0.30116,0.6061 0.62743,0.88175 0.36809,0.30786 0.3179,0.24177 0.52704,0.45092 0.25934,0.2585 0.35722,0.50111 0.47351,0.37981 0.19869,-0.20915 0.27691,-0.5396 0.47894,-0.74289 0.1991,-0.20914 0.36809,-0.54754 0.55632,-0.74413 0.24679,-0.25558 0.35137,-0.0347 0.69854,-0.21793 0.31372,-0.16272 0.33882,-0.39236 1.04573,-0.39654 0.28025,-0.006 0.68181,-0.48229 0.9788,-0.56093 0.38942,-0.10164 0.70314,-0.24762 1.04572,-0.34006 0.19659,-0.0502 0.66508,-0.46849 0.87924,-0.58184 0.29197,-0.15226 0.0385,-0.44925 0.22086,-0.63622 0.26645,-0.28151 0.39235,-0.45175 0.6015,-0.66634 0.1761,-0.18446 0.45133,-0.77007 0.44547,-1.01226 0,-0.26603 0.47895,-0.54754 0.47309,-0.9859 -0.005,-0.39027 1.36529,-0.52747 1.20007,-0.8575 -0.15895,-0.31706 -0.14891,-1.5644 -0.57724,-1.5598 -0.42247,0.004 -1.43055,0.50028 -1.61878,0.31372 -0.32417,-0.3271 -1.43389,0.20329 -1.44184,-0.42415 0,-0.36391 0.35722,-0.57514 0.47853,-0.82779 0.0569,-0.12088 0.10708,-0.20914 0.16564,-0.27021 l -0.0159,-0.0239 c 0.12591,-0.13552 0.28067,-0.14221 0.63622,-0.14765 0.49735,-0.005 0.69394,0.40699 1.04572,0.31371 0.44004,-0.11586 1.14319,0.0933 1.61209,0.0891 0.57264,-0.0105 0.35513,-0.61196 0.79851,-0.84369 0.28779,-0.14975 0.97922,-0.4095 1.09467,-0.64877 0.0774,-0.16104 1.04572,-0.002 0.95788,-0.58393 -0.0715,-0.44046 0.66048,-0.67595 0.22545,-1.15029 -0.14681,-0.15937 0.52287,-1.18794 0.7157,-1.38705 0.26436,-0.2698 0.0786,-0.81106 0.50153,-0.92442 0.42289,-0.11377 0.43502,-0.30284 0.88635,-0.19241 0.46346,0.11461 0.78973,0.15895 1.37157,0.15477 0.19242,0 0.95412,0.0155 1.15908,-0.0402 0.39445,-0.10457 0.64918,-0.66048 0.85833,-0.90811 0.41829,-0.49692 0.89974,-0.95202 1.03485,-1.22893 0.16564,-0.35178 2.23994,0.74079 2.3717,0.47267 0.14514,-0.30954 0.71025,1.81537 0.70607,1.35944 0,-0.30619 0.94115,-0.55382 0.96332,-0.65379 0.0494,-0.21667 0.76129,-0.33547 1.25989,-0.57138 l -0.0435,-0.0121 0.15435,-0.34007 -0.27021,-0.71528 -0.0163,-0.2974 0.17987,-0.1259 -0.11336,-0.18321 0.0715,-0.47309 -0.11336,-0.19283 0.19242,-0.0331 0.0456,-0.11503 -0.39737,-0.17568 -0.20915,0.0611 0.0381,-0.15476 -0.35179,-0.50613 -0.21332,-0.0376 -0.21793,-0.20036 -0.26352,-0.58351 -0.0832,-0.25307 0.0774,-0.28151 0.12549,-0.30744 -0.16439,-0.1715 0.18112,-0.13301 0.26812,0.14807 0.19241,-0.0217 0.0121,-0.37981 -0.16397,-0.13385 -0.0556,-0.30493 0.20036,-0.006 0.0669,-0.32417 0.14849,-0.056 0.35722,0.16062 0.29699,-0.0452 0.19701,-0.18823 0.0878,0.0293 0.0289,-0.19242 z" />
  </g>
  <path
     style="fill:#9BA3B3;stroke:#ffffff;stroke-width:1.99999988;stroke-miterlimit:4;stroke-dasharray:none;fill-opacity:1"
     inkscape:connector-curvature="0"
     id="Cagliari"
     d="m 1826.22,3814.9508 c 0,0 6.9771,-19.5257 11.16,-29.2802 4.1829,-9.7545 1.3887,-18.1371 0,-26.5028 -1.3888,-8.3658 -40.4402,-75.2921 -43.2177,-85.0466 -2.7774,-9.7545 -8.3657,-25.0973 -6.977,-29.2802 1.3887,-4.1829 -2.7942,-30.669 -2.7942,-30.669 l -23.7086,-20.9144 c 0,0 -15.3429,-6.9771 -18.1203,-12.5487 -2.7775,-5.5716 -5.5716,-11.16 -27.8915,-1.4055 -22.3199,9.7545 -29.2803,4.1829 -36.2573,-1.3887 -6.9771,-5.5716 -47.4006,-64.1321 -47.4006,-64.1321 l 50.1947,-83.6578 -1.3887,-48.806 c 0,0 -76.6807,22.3032 -80.8636,23.7087 -4.1829,1.4054 -22.3032,2.7774 -36.2573,1.3887 -13.9542,-1.3887 -12.5487,5.5716 -12.5487,5.5716 0,0 -1.3887,29.2802 -2.7942,41.8289 -1.4054,12.5487 -34.8518,44.6231 -34.8518,44.6231 0,0 -1.3888,12.5487 -2.7942,18.1203 -1.4055,5.5716 -9.7545,8.3657 -22.3032,8.3657 -12.5487,0 -25.0973,19.5258 -25.0973,19.5258 l -20.9145,0 -15.3428,12.5487 -8.3658,-12.5487 -37.646,-2.7942 -4.1829,-11.1432 -22.3032,15.3261 -25.0973,-11.1432 -19.5258,-20.9145 -29.2802,-4.1829 c 0,0 -9.7545,11.1433 -19.5258,18.1203 -9.7712,6.9771 -33.4631,9.7545 -33.4631,9.7545 l -19.5257,11.16 -5.5716,-2.7942 -27.8916,8.3658 c 0,0 -19.5257,-19.509 -32.0744,-26.4861 -12.5486,-6.977 -26.486,4.1829 -37.646,13.9374 -11.1599,9.7545 -15.3428,29.2803 -15.3428,29.2803 l -1.3888,25.0973 -39.0347,27.8915 c 0,0 -8.3658,1.3887 -16.7316,0 -8.3657,-1.3887 -12.5486,4.1829 -15.3428,8.3658 -2.7942,4.1829 -12.5487,6.9771 -16.73157,6.9771 -4.18289,0 -6.97706,2.7774 -15.34284,13.9374 -8.36579,11.1599 -15.34285,71.1091 -15.34285,71.1091 0,0 5.57161,5.5716 6.97706,12.5487 1.40546,6.977 -1.38872,19.5257 -1.38872,19.5257 l 1.38872,65.5208 c 0,0 -5.57161,15.3429 -12.54867,20.9145 -6.97706,5.5716 -6.97706,30.6857 -6.97706,30.6857 l -18.48838,0.3681 c 0,0 -0.0837,0.067 -0.10039,0.084 1.18794,7.0942 0.10039,14.9413 -4.51752,23.625 -12.54868,23.7588 22.75493,59.6313 43.8367,80.7967 0,1.6397 -36.34096,58.8115 -43.13398,60.4512 0,0.017 0.0167,0.05 0.0167,0.05 l 82.3193,155.1852 c 0,0 19.5258,18.1203 23.7087,25.0974 4.1829,6.977 6.977,25.1141 4.1829,30.6857 -2.7942,5.5716 -6.9771,20.9144 -6.9771,20.9144 l 12.967,27.5402 71.3935,-67.5119 25.0974,-28.8285 17.0829,-11.0261 -3.3463,-11.4778 11.7121,-7.6966 9.035,-5.4879 2.1751,10.1728 5.5215,1.7401 8.5331,-28.9289 -1.3386,-8.1985 3.3463,-9.8716 -1.1712,-16.3802 8.8678,-15.0082 1.3385,-10.1895 7.1946,-11.3942 7.0272,-11.5113 1.5226,-7.3285 -5.8728,-20.9144 -15.895,-18.9402 -11.3774,-21.9685 -4.8522,-26.6032 -1.7401,-43.5355 2.4261,-18.5386 9.8716,-26.1347 8.0145,-13.2179 21.5502,-31.9239 42.2974,-44.8908 19.7767,-24.8798 -1.7568,-3.0953 -1.8405,-3.0619 -6.6257,0 -2.8443,-5.2203 12.8833,-7.7132 5.3541,10.1226 0.6692,1.3385 0.8366,1.807 4.6848,9.0351 10.7082,-1.5561 13.6028,7.6966 8.0981,10.3568 27.1051,34.5172 13.0506,-1.556 4.0156,6.1739 5.1868,-0.2175 6.1907,-5.8728 2.677,-6.6089 -7.2949,-4.5343 -2.1919,-6.8599 2.6771,-7.4958 10.1059,-15.6942 13.1342,-13.2179 9.5036,-5.923 29.7821,-17.8358 23.2569,0.3513 16.0623,11.2102 8.0312,8.5498 26.6032,2.8611 9.7043,5.7557 27.5401,-3.3464 4.6681,2.0078 6.5588,9.7043 5.237,2.3425 20.4125,5.3541 5.5214,7.6965 12.0802,4.8521 11.4611,16.8989 8.851,8.1985 25.4487,9.4031 22.0857,21.132 6.8599,11.4276 6.7596,4.0156 5.5047,22.4203 4.4673,3.9821 5.421,-3.3128 5.923,1.5058 18.5386,15.895 16.9323,-0.3514 2.3424,17.6351 5.5215,1.7234 2.677,-7.8639 8.3658,1.0039 7.6965,-5.856 0.251,-0.017 c 3.798,-3.363 9.0852,-27.6572 11.8292,-31.7732 2.7942,-4.1829 22.3032,-18.137 29.2802,-25.0973 6.9771,-6.9604 8.4662,-45.7776 8.4662,-45.7776 z" />
</svg>
